<svg xmlns="http://www.w3.org/2000/svg" viewBox="0 0 242 57.91">
  <defs>
    <style>
      .a {
        fill: #fcfcfc;
      }
    </style>
  </defs>
  <title>fleetwood</title>
  <g>
    <path class="a" d="M28,0c1.33,1.88,3.32,1.89,5.33,1.88,5.15,0,10.3,0,15.45,0,1.26,0,2.52.16,3.95.26-1.6,3.17-3.93,4-7.07,3.91C40.84,5.85,36,6.16,31.2,6a15.74,15.74,0,0,0-10.63,3.4c-2,1.5-4,2.85-6.52,4.58L0,3V2l19.78-.12c2,0,4,.16,5.22-1.88Z"/>
    <path class="a" d="M242,3c-3,4.13-6,8.22-9,12.4-1.51,2.16-3.26,3.23-6.08,2.14-1.64-2.38.12-5-.14-7.55s-.05-4.92-.05-7.7H231v8.65c3.08-2.57,4-6,6.52-8.95H242Z"/>
    <path class="a" d="M242,57a1.37,1.37,0,0,1-.46-.12c-.42-.3-.81-.62-1.21-.94L242,56Z"/>
    <path class="a" d="M183,13A17.67,17.67,0,0,1,173,18c-4.69.5-6.79-.82-8.37-4.85-2.68,1.42-5.4,2.88-8.14,4.28a6.22,6.22,0,0,1-1.9.51c-6.1.9-8.75-1.58-8.53-7.94l-.08.11.89-1.83.31-.38.68-.68.36-.37L149,6,149,6a13.84,13.84,0,0,1,8.86-4.1c3.94-.18,7.83-.27,8.82,5.34,3.71-3.76,7.57-5.72,12.4-5.4,4.28.28,5.21,1,6.34,5.81l3-5.62a94,94,0,0,1,9.79.07c4.66.49,6.51,3.7,4.32,7.77a14.42,14.42,0,0,1-5.3,5.71,21.26,21.26,0,0,1-14.92,2l.53-4.57a1.25,1.25,0,0,0,.45-.05c.08,0,.1-.22.14-.33Zm-9.72,1a6.48,6.48,0,0,0,6-5,3.16,3.16,0,0,0-.48-2.64,4,4,0,0,0-3.06-.9c-2.62.6-4.18,2.51-5,5C170.05,12.8,170.94,14.06,173.3,14.07Zm-20.82-.32c4.5.21,6.88-1.18,7.86-4.64a3.14,3.14,0,0,0-.4-2.66,4,4,0,0,0-3-.88C153.16,6.41,151.7,9.14,152.47,13.75Zm36.36-.3c5.7.62,7.82-1,8.72-6.86l-5.19-1.72Z"/>
    <path class="a" d="M146,10a49.53,49.53,0,0,0-4.36,5.34c-1.61,2.62-3.65,3.09-6.9,2l1-8.35a56.84,56.84,0,0,0-3.47,5.44c-1.57,3.26-3.89,4.33-7.79,2.89l1-10.7c-1.66-1.17-3-1-3.92,1-1.08,2.43-2,4.92-3.12,7.35-1.36,3-1.41,3-5.91,2.24l4.05-10.91a39.25,39.25,0,0,0-12.31.07l0,1.19,5.63.58c-.53,3.41-.54,3.33-3.08,3.71-1.79.27-4.11-1-5.43,1.88l7.31.46c-.25,2.4-1,3.81-3.56,3.75-3.29-.07-6.59,0-10.13,0v-3L95,15c1.27-2.63,2.57-5.24,3.79-7.89.75-1.63,1.4-3.3,2.12-5h30.6L131,9l-.54,1.31.37.1L131,9l5.35-6.87h5.41L140,11.34l5.66-9.16h4.87L149,6,149,6l-.76.75-.36.37-.68.68-.31.38L146,10.06Z"/>
    <path class="a" d="M95.08,14.9a5.81,5.81,0,0,1-6,3c-2.57-.25-5.19-.05-8-.05V15L81,15,86.72,2.17H98.47c-.48,3.48-.49,3.43-3,3.7-1.73.19-3.63-.61-5.41.9,1.59,2.13,4.27.15,5.86,1.74-.06,2.18-1.12,3.26-3.4,3.29-1.71,0-3.67-.58-5.52,1.75,1.81.15,3.15.16,4.44.4A32.75,32.75,0,0,1,95,15Z"/>
    <path class="a" d="M27.58,13.82h9.1c-5.37,6-11.35,6.43-18.69,1.64,4.39-3.93,8.62-7.55,15.17-6.76,3.73.45,7.56.08,12.14.08-2.77,2.9-5.12,4.33-8.39,4.16-3.11-.16-6.23,0-9.35,0Z"/>
    <path class="a" d="M215.59,2.13A38.94,38.94,0,0,1,222.18,2a5.73,5.73,0,0,1,3.62,2.12c1,1.46.39,3.23-.95,4.51-.71.68-1.5,1.28-2.15,1.83V17.6h-3.52c-1.79-1.73.91-4.51-2.21-5.45-2.28,1.48-1,7.41-6.65,5.26Zm6.22,4.44c-1.54-1.78-2.66-1.75-3.45.06-.24.55.06,1.33.17,2.71Z"/>
    <path class="a" d="M67.85,8.35c-.66,3.49-.66,3.49-7.3,3.76l-2.94,5.45H52.75L59,2.11H70.89c.27,2.33-.48,3.58-2.74,3.73-1.32.08-2.66-.05-4,.11a2.55,2.55,0,0,0-1.87,1.63Z"/>
    <path class="a" d="M81,15a4.87,4.87,0,0,1-5.11,3c-2.77-.21-5.58,0-8.81,0,1.25-5.81,4.06-10.47,5.74-15.64h5.22L74,13c2.23,1.93,5.29-.49,7,2Z"/>
    <path class="a" d="M207.93,53l-2.31,4.21a8.18,8.18,0,0,1-2-7.58l2,4,2.2-4,2.74,3.72,2.13-4.51c.81,3.66-.91,5.68-1.79,9Z"/>
    <path class="a" d="M232.29,56.69V50.1c2.32-1.33,4.45-1.29,5.85.72a4.84,4.84,0,0,1,.54,4.06C237.51,57.35,235.08,57.22,232.29,56.69Zm1.84-.8c2.41-.46,3.8-1.29,3.4-3.31-.29-1.44-1.52-2-3.27-1.32a7.93,7.93,0,0,0-.41,1.7A24.65,24.65,0,0,0,234.13,55.89Z"/>
    <path class="a" d="M134.1,53.19A3.43,3.43,0,0,1,130.48,57a4.11,4.11,0,0,1-4.38-3.82,4.38,4.38,0,0,1,4.31-4A4.22,4.22,0,0,1,134.1,53.19Zm-6.14-.7c0,2.27,1.21,3.67,2.31,3.13A4.31,4.31,0,0,0,132.54,53a1.93,1.93,0,0,0-2.63-2C129,51.2,128.37,52.15,128,52.49Z"/>
    <path class="a" d="M222.12,53.49A3.45,3.45,0,0,1,218.18,57a4,4,0,0,1-4.06-4.12,4.4,4.4,0,0,1,4.09-3.69A4.11,4.11,0,0,1,222.12,53.49Zm-4,3.17c1.17-1.55,2.14-2.4,2.52-3.46s-1-2.34-2.48-2.31A2,2,0,0,0,216,53.45C216.24,54.37,217.08,55.14,218.09,56.66Z"/>
    <path class="a" d="M226.66,49.18a4.29,4.29,0,0,1,4.3,4A3.82,3.82,0,0,1,227.21,57a4,4,0,0,1-4.31-3.85A4.26,4.26,0,0,1,226.66,49.18Zm0,.71c-.9,1.59-1.67,2.4-1.79,3.3a2,2,0,0,0,2.27,2.44A2,2,0,0,0,229,52.82C228.78,52,227.85,51.29,226.7,49.89Z"/>
    <path class="a" d="M10.59,57a4.12,4.12,0,0,1-4.3-3.82c-.05-1.88,2.28-4.08,4.26-4,1.65.05,3.94,2.17,4.08,3.77A4.09,4.09,0,0,1,10.59,57Zm2.3-3.7c-.22-1.51-1-2.5-2.58-2.37S7.79,52.15,8.2,53.6a3.45,3.45,0,0,0,2.21,2.08C11.93,56,12.73,54.79,12.89,53.3Z"/>
    <path class="a" d="M39.1,48.59l3.74,4.79,3.67-4.15c1,2.64.6,4.92-.08,7.28l-.9-3.26L43,55.94l-2.52-2.66-.91,3.28-.45-.06Z"/>
    <path class="a" d="M111.66,53.56l1-3.91c1.68,2.55,1,4.7.88,7.76l-4.84-4.35-.93,3.28c-1,0-1.08-2.14-.11-7.48Z"/>
    <path class="a" d="M88.55,57.56l-3-3.21-1.85,2.93c-1-2.75-.61-4.92-.4-7,4.26-1.5,4.92-1,4.69,3.08A27.84,27.84,0,0,0,88.55,57.56ZM87.13,51.8a5.24,5.24,0,0,0-1.34-.68c-.2,0-.68.44-.65.54.15.38.41.93.7,1S86.52,52.22,87.13,51.8Z"/>
    <path class="a" d="M77.8,49.18c2,.08,4.19,2.39,4.05,4.32A4.16,4.16,0,0,1,77.7,57a3.47,3.47,0,0,1-3.8-4.09A4,4,0,0,1,77.8,49.18ZM80,52.24c-.55-.33-1.38-1.19-2.29-1.29-1.59-.18-2.39,1-2.45,2.49a2.25,2.25,0,0,0,2.6,2.32C79.4,55.49,80.06,54.47,80,52.24Z"/>
    <path class="a" d="M191.35,55l4,1.35-.07.43h-4.49c-1-2.25-.54-4.48-.17-7.2l4-.22.15.78-2.8,1.45,2.32,1.88Z"/>
    <path class="a" d="M160.68,50.16l-2.79,1.45,2.39,1.94-2.89,1.23,4.73,2H157C155.31,50.48,155.79,49.48,160.68,50.16Z"/>
    <path class="a" d="M37.22,56.77c-2.38-1.84-4.45-2.9-6.67,1.14l-.48-1.58,3.25-7.13C36.27,51.08,36.16,54.12,37.22,56.77Zm-4.05-3.69c.14.26.24.67.44.73s.58-.15.88-.24l-.74-1.07Z"/>
    <path class="a" d="M163.13,49.55c4.69,0,4.61,0,4.32,3.71-.09,1.12.44,2.29.82,4.12l-3.69-3.08-1.46,2.89Zm3.72,2.58c-.67-.62-.94-1.08-1.25-1.1a1.45,1.45,0,0,0-1.18.48c-.15.27.18.81.29,1.23Z"/>
    <path class="a" d="M141.41,57.6l-3.82-3.36-1.49,3V49.86c4.6-.68,4.56-.65,4.29,3.5C140.33,54.47,140.91,55.62,141.41,57.6ZM139.87,52c-.73-.56-1.06-1-1.38-1a1.49,1.49,0,0,0-1.16.6c-.12.24.34,1.11.5,1.1A8.82,8.82,0,0,0,139.87,52Z"/>
    <path class="a" d="M20.26,57.39l-1.94-3.81-2,3.38V50c4.15-1.05,4.6-.68,4.34,3.14a15.11,15.11,0,0,0,.59,3.5Zm-.2-5.5c-.79-.5-1.14-.91-1.46-.89s-.79.4-1.18.63c.22.37.47,1,.66,1A8.09,8.09,0,0,0,20.06,51.89Z"/>
    <path class="a" d="M188.62,50.2l-2.73,1.36,1.57,1.79L185.93,55l3.21,1.68h-4.81V49.81l4-.63Z"/>
    <path class="a" d="M196.4,49.51h4.78l-2,7.46c-1.68-1.21-.74-2.85-1.16-4.08A29.47,29.47,0,0,0,196.4,49.51Z"/>
    <path class="a" d="M172.42,57.18V49.67l4.09-.37.21.77-3.1,1.74,2.56,1.44Z"/>
    <path class="a" d="M104.31,48.71c1.64,3.79,1.42,6.22-.13,7.58-1.71,1.49-4.68.7-5.1-1.52a8.63,8.63,0,0,1,.66-4.93,28.52,28.52,0,0,0,.64,4.26A2.34,2.34,0,0,0,102,55.55a2.29,2.29,0,0,0,1.69-1.39A39.72,39.72,0,0,0,104.31,48.71Z"/>
    <path class="a" d="M68.38,49.61l4.11-.28.19.77-3,1.62,2.42,1.59-3.74,3.56Z"/>
    <path class="a" d="M29.2,53.26l-3.47,3.51c-.9-2.32-.52-4.49-.14-7.14l3.93-.3.19.78-3,1.65Z"/>
    <path class="a" d="M151.81,53.94l2.61-4.32c.34,2.84-.9,5-2.05,7.64-3.13-2-2.46-5.29-4.21-7.35C150.47,50.15,150.3,52.41,151.81,53.94Z"/>
    <path class="a" d="M59.21,57.4,56,49.1l3.92,3.12,1.22-3,1,.73Z"/>
    <path class="a" d="M143.08,56.71V49.65l3.46-.25.19.69-2.94,1.74,2.65,1.67-2.85,1.3,4.51,1.91Z"/>
    <path class="a" d="M5.61,50.21,1.87,51.62l2.59,1.6L1.15,56.55v-7l4.31-.19Z"/>
    <path class="a" d="M179.13,50.35c1.5,4.95,1.5,4.95,3.48,6.19a5.07,5.07,0,0,1-1.34.44,23.68,23.68,0,0,1-2.38-.17C178.08,53.17,178.08,53.17,179.13,50.35Z"/>
    <path class="a" d="M54.24,55.21,57,56.79H52.36V49.85C54.52,51.45,53.27,53.57,54.24,55.21Z"/>
    <path class="a" d="M96.91,50.14l-3.19,1.63,2.63,1.57-3.28,3V50C94.36,49.09,95.53,48.78,96.91,50.14Z"/>
    <path class="a" d="M124.6,50.2l-2.83,1.57,2.53,1.5-3.2,3.18V49.54h3.47Z"/>
    <path class="a" d="M49.24,56.38V49.8h.59v6.47Z"/>
    <path class="a" d="M64.16,56.43l-.84,1a4.43,4.43,0,0,1-.7-1c-.05-.15.38-.67.49-.64A4.36,4.36,0,0,1,64.16,56.43Z"/>
    <path class="a" d="M115.36,57.5a7.4,7.4,0,0,1-.13-1.43c0-.12.47-.21.72-.31a4.5,4.5,0,0,1,.33,1.25C116.28,57.15,115.77,57.29,115.36,57.5Z"/>
  </g>
</svg>
