<svg xmlns="http://www.w3.org/2000/svg" viewBox="0 0 169.55 93.7">
  <defs>
    <style>
      .a {
        fill: #fff;
      }
    </style>
  </defs>
  <title>forest-river</title>
  <g>
    <path class="a" d="M90.61,93.7H79.07a9.81,9.81,0,0,0-1.89-.49c-2-.12-4.05,0-6.05-.24a150.3,150.3,0,0,1-29.86-6.1c-9.76-3.16-18.91-7.59-26.9-14.17C8.67,68,4.13,62.44,1.64,55.35A23.45,23.45,0,0,1,.28,43.45,35.37,35.37,0,0,1,11,23.85,68.68,68.68,0,0,1,30.84,10.74c14-6.36,29-9.29,44.22-10.39a133.92,133.92,0,0,1,28.09.93c11.23,1.56,22.24,4,32.71,8.4,8.91,3.78,17.2,8.55,23.83,15.74,4.44,4.82,7.87,10.22,8.78,16.93a19.88,19.88,0,0,0,1.08,3.38v.61a8,8,0,0,0-.5,1.58,33.15,33.15,0,0,1-3,11c-3.37,7-8.74,12.3-15,16.67a87.23,87.23,0,0,1-26.2,12.16,152.78,152.78,0,0,1-30.23,5.43C93.28,93.29,91.82,92.62,90.61,93.7ZM31.07,32.42a1.24,1.24,0,0,0-.09-.22s-.08-.05-.12-.08l.29.22.86.59.16-.4ZM22,20.83a3.49,3.49,0,0,0-1.11.31c-4.8,3.42-9.19,7.24-12.3,12.34a2.34,2.34,0,0,0-.13.66l1.73,1.56L9.23,37l2.12,1.13-1.14,1.56,2.28.92c.19.74-1.73,1.28-.15,2.16a1,1,0,0,1,.17,1c-.5.74-.07,1.15.43,1.49a2.89,2.89,0,0,0,3.75,0l-3.13-1.5c1.08-1.32,3.32-.7,4-2.57l-2.33-.66,4.1-2.66-3-1.09,2.81-3.51L17.32,32l3.82-1.87-3.23-.55,3.66-3-1.87-1.5A5.12,5.12,0,0,0,22,20.83l.5-.2-.29-.27ZM20.82,65.21a9,9,0,0,0-2.66-.37,2.54,2.54,0,0,1-2.47-.68c-1.3-1.33-2.8-1-4.65-.68.74.86,1.23,1.48,1.78,2.06,5.73,6,12.68,10.29,20.21,13.64C48.37,86,64.62,88.65,81.25,89.33a130.58,130.58,0,0,0,19-1,131.43,131.43,0,0,0,32-7.5,9.51,9.51,0,0,0,1.34-.78c-5.28-2.54-10.46-3.72-16.06-2.22a12.81,12.81,0,0,1-10.68-2c-2.62-1.7-5.4-3.15-8-4.86a3.37,3.37,0,0,0-3.54-.28l3.22,1.79-.16.41-3.11.2-.13.46,3,1.42-2,1.14,2,1.24-2.06.83,1.78,1.47-.13.52H86l-.11.52,3.28,2.43H61.92l-.05-.35,5.23-2.08L67,80.39l-3.6-.3-.07-.41,4.45-1.31C61.33,75.85,54.6,77.09,47.7,76.9c2.08-1.75,4.79-2.1,6.58-4.28l-4.51-.42-.09-.47,5.59-2.06-4.12-2,4-2.09h-6.2c-6.44,0-12.87,0-19.31.08-2.72,0-5.44.23-8.17.29-.22,0-.46-.5-.69-.77a.89.89,0,0,0,.23-.1s0-.11,0-.16ZM33.54,25.1l-1.78-1,3.15-2.64-1.35-1.28a3.15,3.15,0,0,1,.11-.36c.48-1,2.37-1.5,1.26-3.18-.07-.11.22-.54.42-.74.81-.84,1.65-1.66,2.46-2.46l3.9,3.16L40,18.73l3.21,1.85-1.86,2.16,4.64,2-3,1.65,3,2c-.34.39-.62.68-.85,1a11.52,11.52,0,0,0-.58,1c2.41.07,2.5,0,4.37-2.21l-2.52-1L50,22.57l-2-1.8c.61-1.88,2.72-3.12,1.55-5.31l2.72-5.12,4,5.07L54.4,18.33l3,3.15-1.49,3.11c2.89,2.46,2.89,2.46,4,1.4l-1.37-1c.64-1.08,1.85-2.21,1.64-2.91-.68-2.31,1.28-3.08,2-4.94l3.42,3.75-1.58,2.31,2.87,2.45-1.67,2.25,4,2.18-2.3,2.11,2.68,2.3-1.16,2.17,3.18,3.09c-.68.4-1.26.72-1.82,1.08s-1.06.77-1.79,1.31l3.59,3.29L68,46.52l3.49,2.86,1.78-1.46L72,47.1c.63-.72,1.54-1.32,1.47-1.76-.32-2,1.29-2.45,2.42-3.59l3.06,2.4-1.12,1.59,2.51,1.75-1.37,1.78c3,.28,4.74,3.25,7.73,3,0-2.36,1-4.1,2.28-5.94a13.29,13.29,0,0,0,.94,1.46,18.11,18.11,0,0,0,1.33,1.26c-1.68,1.48,1.39,2.44.33,3.85l1.92,1.25-.95,1.62a19.64,19.64,0,0,0,3.4.92c3.72.29,7.45.55,11.19.61a54.48,54.48,0,0,1,13.74,1.94,71.35,71.35,0,0,0,20.91,3,114.43,114.43,0,0,1,16.52.81c8-8.62,8.64-21.19,1.61-30.91-5.63-7.78-13.29-12.94-21.76-16.93C123.77,8.5,108.5,5.42,92.75,4.53A136.58,136.58,0,0,0,57.51,6.9c-8.22,1.69-16.35,3.71-24,7.25-2.89,1.34-5.7,2.87-8.77,4.42L28,21.72l-1.62,2,2.94,2.07L28,27.65c3.12,2,3.29,2,4.36.22l-1.63-.7c.57-1.4,2.61-.41,2.78-2.1l.23-.36ZM44.76,35c1.11.37,1.11.37,1.85-1.11Zm.66,4.09-.17.32c.27.23.5.56.81.67a3.53,3.53,0,0,0,1.11,0l0-.38ZM82.88,62.76l.8-.77c-.12-.12-.31-.35-.36-.33a8.86,8.86,0,0,0-.92.58ZM58.43,31.13l.59-.29c-.16-.23-.27-.53-.49-.65s-.4.23-.6.37ZM83.07,66.57l-.1.13.16,0Z"/>
    <path class="a" d="M89.58,25.55a12.68,12.68,0,0,1,.18,6.54c-.92.52-1.42.23-1.73-.58-.56-1.48-1.62-2-3.27-1.49-.66,1.66-.27,3.47-.23,5.25,0,.84,2.4,2.62,3.44,2.64,1.71,0,3.42,0,5.32,0l.28,2.63H75.19L75,38.27c.46-.15.74-.25,1-.32a6.9,6.9,0,0,0,2.75-.7A4.1,4.1,0,0,0,80.83,33c-.12-2.32,0-4.64,0-7,0-3.1-.06-3.1-2.4-5.15A6,6,0,0,1,80,20.35c4,0,8,0,12.28,0V24.9c-1.36.54-2-.31-2.41-1-1.33-2.15-3.12-2.19-5.32-1.46v5.37C87.26,29.47,87.68,26.07,89.58,25.55Z"/>
    <path class="a" d="M99.28,42.89v5.47l2.19,1.6c-2.95,1-5.34.32-7.71.48l-.24-.65,1.73-1.54V34.84l-2.14-1.2c.25-.33.36-.6.48-.6,2.91-.07,5.81-.19,8.72-.12,2.58.06,4.22,1.23,4.7,3.07.63,2.41-.1,4-2.56,5.5-.25.16-.48.35-1,.72,1.15,1.39,2.27,2.75,3.41,4.09s2.16,2.48,3.47,4l-5.33.27-5.19-7.72Zm0-8.53v6.7c2.84-.32,3.71-1,3.79-3C103.21,35.63,102.36,34.74,99.32,34.35Z"/>
    <path class="a" d="M119.95,45.54c-.69-1.42-1.17-2.27-1.53-3.16-.72-1.78-1.31-3.6-2.06-5.37-.92-2.19-1.18-2.24-3.8-1.17,0,1.4,0,2.9,0,4.4,0,2.41,0,2.41,1.81,4.31h-5.59c.62-1.26,2.18-1.7,1.83-3.29a9,9,0,0,1,0-3.92c.4-1.67-1.47-1.93-1.81-3.4H119.2c-1.09,2.37.2,4.27,1.12,6.85l2.2-5L120.59,34h12.8c.71,1.63.23,2.5-.69,3.64-.62.76-.29,2.3-.41,3.82l-2.59-1.91c-.82,1.38-.36,2.42-.18,3.48a2.78,2.78,0,0,0,2.89,0c.83-.48.41-2.18,2.2-1.91l-.34,3.4h-8.53c2.13-2.68.89-5.78,1.2-8.69-2-.91-2.48-.88-3.18.6-.81,1.73-1.43,3.55-2.16,5.32C121.17,42.82,120.68,43.89,119.95,45.54Zm9.59-6.61,2.9-2.67c-.84-1.2-1.85-1-3.1-.7Z"/>
    <path class="a" d="M136.42,34.12a25.56,25.56,0,0,1,5.27-.09c3.12.57,3.68,2.51,1.66,4.92-.19.23-.39.44-.58.65a10.63,10.63,0,0,0,3.61,4.6c-.81,1.27-2,.14-3,.69l-3.2-4.55c-1.19,1.83.06,2.94,1,4.37h-5.14C138.18,41.27,137.83,37.85,136.42,34.12Zm3.44,1.37c0,1.2-.47,2.31.3,3.42,1.26-.29,2.1-.85,2-2.21C142,35.58,141.3,35.22,139.85,35.48Z"/>
    <path class="a" d="M116.94,30.52c-2.09.39-3.55.17-4.48-1.71a17.54,17.54,0,0,0-1.8-2.46c-1.39,1.79.13,2.94.84,4.31h-5.09c2.24-3.48,1.41-6.83.77-10.3a9.13,9.13,0,0,1,5.2-.22c2.82.81,3.47,2.71,1.51,4.84-.26.28-.56.52-1,1ZM110.25,25c2.14-.86,2.65-1.52,2.16-2.7s-1.23-1-2.16-.58Z"/>
    <path class="a" d="M121.17,29.24l2.87.15,1.82-2.58c1,1.23.39,2.3.57,3.66-1.69.06-3.16.13-4.64.16s-2.77,0-4.32,0A11.14,11.14,0,0,0,117.41,20h8.11v3.5c-.9-.87-1.35-1.59-2-1.87a8.33,8.33,0,0,0-2.5-.23l.14,2.67c1.7.94,1.46-1.19,2.53-1.2,1.23,1.48.41,2.95.13,4.64l-2.1-1.91C120.78,26.76,121,27.83,121.17,29.24Z"/>
    <path class="a" d="M105.28,25.35A5.49,5.49,0,0,1,100.2,31c-2.74.1-5.3-2.76-5.25-5.87,0-2.83,2.38-5.45,4.94-5.55C102.72,19.51,105.26,22.21,105.28,25.35Zm-2.43-.54a7.08,7.08,0,0,0-.62-2.35A3.61,3.61,0,0,0,100.17,21a1.81,1.81,0,0,0-2.1,1.32,7.29,7.29,0,0,0-.31,5.26c.61,1.56,1,1.93,2.59,1.87a2.36,2.36,0,0,0,2.25-2A17.7,17.7,0,0,0,102.85,24.81Z"/>
    <path class="a" d="M134.92,20.43c0,1.19.43,2.34-.42,3.61-1.43-.84-1.29-4.63-4.49-2.12a10.82,10.82,0,0,0,1.53,1.73,20,20,0,0,0,2.16,1.07c1.76,1,2.18,2,1.61,3.69A3.7,3.7,0,0,1,131.65,31c-1.08-.11-2.14-.42-3.4-.67a14.81,14.81,0,0,1-.24-1.6c0-.56.05-1.13.1-2.06a12.94,12.94,0,0,1,1.36,1,25.36,25.36,0,0,0,1.82,1.87c.66.51,1.32.16,1.87-.39s.26-1.36-.14-1.88a4.84,4.84,0,0,0-1.44-1c-.52-.3-1.1-.49-1.6-.81-1.56-1-2-2.12-1.56-3.5a3.36,3.36,0,0,1,3.83-2.23C133,19.85,133.79,20.12,134.92,20.43Z"/>
    <path class="a" d="M143.87,30.75h-4.68a14.57,14.57,0,0,0,.71-9.6l-2.76,2.35-.37-3.09a16.58,16.58,0,0,1,9.2-.08l.36,2.7c-1.91.88-1.67-1.6-3.28-1.54-.67,1.46-.2,3.16-.29,4.77s-.45,3.21,2.07,4Z"/>
    <path class="a" d="M146.68,40.77V38c3.67-.06,7.24,0,10.77,0,.59,2.57.5,2.78-1.51,2.82C153,40.82,150,40.77,146.68,40.77Z"/>
  </g>
</svg>
