<svg xmlns="http://www.w3.org/2000/svg" viewBox="0 0 157.98 103.24">
  <defs>
    <style>
      .a {
        fill: #4d4d4d;
      }

      .a, .b {
        fill-rule: evenodd;
      }

      .b {
        fill: #fff;
      }
    </style>
  </defs>
  <title>jayco</title>
  <g>
    <g>
      <path class="a" d="M103.35,41.7c15.66,4.9,24,4.55,35.84,4.06,4.66-.08,2.87,3.17,1.44,3.73a29.84,29.84,0,0,1-12.53,2.32c.63.79,0,1.77-1,2.29a29.76,29.76,0,0,1-15.85.49c1,1-.34,1.4-2.87,2a12.91,12.91,0,0,1-3.82-.2,53.68,53.68,0,0,1-16-6.91C93.2,47.76,98.6,44.41,103.35,41.7Z"/>
      <path class="a" d="M18.19,2.15C17.73.76,19.57-.54,21.45.23c26.7,14.34,38.55,16.57,51,22.9,6.67,12.78,23.67,9.71,11.13,5.13-1.65-1-.56-2.49,1.29-2.1a128.76,128.76,0,0,1,22,5.09c2.56,1.41,3.33,2.26,4,3.16a13.58,13.58,0,0,1,5.9,2.11c1.83,1.3.43,2.5,0,2.51-8.39.13-11.34,1.2-14.23,3.51-4.38,2.95-8.26,5.52-13.24,7-9.55,2.84-30.94,2.89-44.31-3.89-3.66.24-10.46.06-14.29-2.69-1.15-.42,0-1.16-.62-1.43a5.14,5.14,0,0,1-3.43-3.35c-.43-1.31-.87-3.17,1.5-2.87,17.05,3.44,26.24,4.12,37.26,2.87-6.88-1.27-10.28-2-14.76-5.07a3.59,3.59,0,0,1-1.32-3.06A34.79,34.79,0,0,1,33,19.85c-1.55-1.57-1.35-3.6-.05-3.78C27.2,12.89,18.89,6,18.19,2.15Z"/>
      <path class="b" d="M90.08,49.16c6.45-2.46,8.93-4.53,12.45-6.39,13.5,4.38,23.07,5,36.84,4.3,1.6-.12,1.35.42,0,1.43-1,.69-8.18,2.33-15.86,2.29a68.22,68.22,0,0,1-22.57-4.2c-1.09-.38-1.36.44-.51.81,8.77,3.5,16.4,4.45,25.33,4.66.7,0,1.29-.12,1,.51-1,1.4-3.4,1.27-5.93,1.49-7.57.46-15.2-1.27-23.73-4.91-1.1-.42-1.21.6-.41,1a71.63,71.63,0,0,0,13.52,4.54c.26.06.53.14.14.39s-2.1.64-5.39.33C103.21,55.22,95.47,52.12,90.08,49.16Z"/>
      <path class="b" d="M44.24,28.22a20,20,0,0,1-2.16-1.08,12.42,12.42,0,0,0-5.9,9.7l2.53.39C38.88,32.79,40.72,29.94,44.24,28.22Z"/>
      <path class="b" d="M39.78,45.59C49.56,55.18,65.43,58.31,79,58.83s24.91-1.59,25.58-2.47a18.51,18.51,0,0,1-4.11-1.24c-20.95,4-48.09-.08-56.89-9.47A19.09,19.09,0,0,1,39.78,45.59Z"/>
      <path class="b" d="M118.25,45.29l2.69.46c2.42-5.22.15-11.82-6.14-15.87C100.7,20.65,82,18.57,65.58,20l4.27,1.93C93.83,20.46,126.23,30.42,118.25,45.29Z"/>
      <path class="b" d="M100.84,31l4.22,1.1a8.65,8.65,0,0,1,5,3.61,16.83,16.83,0,0,1,5.44,1.62c.28.13.31.48-.12.5-6.15.39-4.89.16-7.65.83a32.09,32.09,0,0,0-6.85,3.15v-2a28.76,28.76,0,0,1,6.13-2.6A3.54,3.54,0,0,0,104,35.1c2.9-.15,2.59-1.72-.06-2.17a20.81,20.81,0,0,0-3.14-.54ZM95,29.51c2,.46,3.91,1,5.87,1.46v1.43a13,13,0,0,0-5.43.6c-.12,0-.24.12-.36.17l-.08.07V29.51Zm5.87,12.28c-2,1.22-3.72,2.47-5.87,3.65v-4a3.61,3.61,0,0,0,0-2.68V34.28a2.17,2.17,0,0,0,.79.48,24.35,24.35,0,0,0,2.94.39c-1.54,1.53-1.17,3.85-.28,6.24a26.36,26.36,0,0,1,2.42-1.59ZM75.16,29a20.56,20.56,0,0,0,6.27,4c4.23,1.12,6.29.84,7.83-.91,1-2.07-3.31-3.77-5.1-4.66C88,28,91.52,28.7,95,29.51v3.72a.67.67,0,0,0,0,1.06v4.44q-.78-2-3.91-4a9.72,9.72,0,0,1-5.36,1.43,17.18,17.18,0,0,1-10.54-5V29ZM95,45.44a30,30,0,0,1-4.26,1.92A54.36,54.36,0,0,1,75.16,50V48.9c6.75-.21,13.35-1.34,16.46-3.75A9,9,0,0,0,95,41.4ZM22.28,2.38C40.89,12.65,50.79,15.64,71.16,24a15.81,15.81,0,0,0,4,4.93v2.24l-.27-.26c-.28-.39-1.49-.58-1.62,0A11.24,11.24,0,0,0,75,39.55a15,15,0,0,1-7,2.13c-5.33.56-10.33,1.63-12.23,3-.94.68-.84,1.09.16,1.68,2.92,1.73,11.2,2.79,19.26,2.54V50a69.28,69.28,0,0,1-29.83-5.72c-4.53.06-9.28,0-13-2.33-.35-.22-.18-.39-.09-.45l.46-.11c.27-.23.27-.44.19-.46-2.82-.87-3.78-1.56-4.59-3.39-.14-.32-.24-.83.49-.69,7.7,1.53,14.92,2.9,22.08,3.22s14.26-.19,19.92-1.82c.73-.21,1-1.25,0-1.14-9.68-.61-15.65-2.32-19.06-5.41-.11-.1-.81-.75-.73-.93s.67,0,1,.1A93.56,93.56,0,0,0,69.7,34.11c1.6-.11,1.52-1.45.06-1.41C50.61,31.42,37.61,23.95,34,18.58c-.48-1.16,1-.92,2.51-.43A147.5,147.5,0,0,0,70.39,28.73c1.07.32,1.51-.86.24-1.21-35-8.13-44.23-16.3-50.1-23.93a1.59,1.59,0,0,1-.08-1.41C20.73,1.75,21.66,2.11,22.28,2.38Z"/>
    </g>
    <g>
      <polygon class="b" points="0.79 83.56 11.84 83.56 11.75 84.17 11.49 85.39 11.41 86.44 11.41 87.31 11.58 88 11.75 88.35 11.93 88.61 12.1 88.79 12.36 88.96 12.71 89.13 13.06 89.22 13.49 89.31 13.93 89.31 14.89 89.22 15.67 89.05 16.02 88.87 16.37 88.61 16.72 88.35 16.98 88.09 17.5 87.31 17.94 86.26 18.28 84.87 18.63 83.3 22.29 65.45 34.13 65.45 30.73 82.34 30.47 83.65 30.13 85.04 29.78 86.35 29.25 87.57 28.73 88.79 28.04 89.92 27.34 90.96 26.38 91.92 25.34 92.88 24.12 93.66 23.42 94.01 22.73 94.36 21.94 94.71 21.16 94.97 19.33 95.4 17.33 95.75 15.06 96.01 12.63 96.1 10.27 96.01 8.19 95.84 6.44 95.49 4.96 95.05 4.27 94.79 3.66 94.53 3.13 94.27 2.61 93.92 2.18 93.57 1.83 93.23 1.48 92.88 1.13 92.53 0.7 91.75 0.35 90.88 0.17 90 0 89.13 0 88.18 0.09 87.31 0.26 86.44 0.44 85.56 0.79 83.56"/>
      <path class="b" d="M47.63,86.61H46.06L45,86.75v-4.1l1.79-.05h3.13l.26-1.13.09-.61v-.61l-.18-.61-.17-.52-.35-.35L49,78.43l-.7-.18-.87-.09-1,.09-.78.09-.61.26-.13.06V73.89l.48-.07h4.18l1.74.09,1.57.18,1.48.17,1.31.26,1.13.35,1,.44.87.43.7.61.61.61.52.7.35.87.18.87.09,1-.09,1.13-.18,1.22-2,9.84v.26l-.09.35-.09.26v.7l-.09.35v.87H48.41l.44-3-1.13,1-1,.78-1.22.7L45,95V91.47l.48-.16.87-.35.78-.61.61-.61.61-.78.35-.78.26-1,.17-.61ZM45,86.75l-.22,0L43.62,87l-.87.35-.7.44-.61.44-.35.52-.17.61-.09.52.09.35.17.44.17.35.43.26.44.26.61.17H44l.44-.09.52-.09h0V95l-.74.32L43,95.66l-1.39.26L40.23,96l-1.48.09h-.87l-1-.09H36l-.87-.09-.78-.09-.78-.18-.7-.17-.61-.17L31.69,95l-.61-.44L30.56,94l-.43-.61-.35-.7-.17-.78V91l.09-1L30,88.87l.44-1,.61-.87.7-.78.78-.7,1-.61,1-.52L35.61,84l1.22-.35L38,83.3,39.44,83l1.3-.17,3-.17,1.26,0v4.1Zm0-12.87v4.77l-.48.21-.43.35-.35.44-.26.43-.17.44H32.82l.26-1,.52-.87.52-.78.7-.7.87-.61.87-.52,1-.52,1-.44,1-.35,1.13-.26L42,74.25l1.13-.17L44.32,74Z"/>
      <polygon class="b" points="62.51 103.24 68.35 95.32 61.12 74.6 73.92 74.6 76.27 85.74 82.89 74.6 94.29 74.6 84.37 88 82.45 90.7 80.71 93.14 79.14 95.32 77.84 97.23 76.71 98.97 75.75 100.45 74.88 101.93 74.09 103.24 62.51 103.24"/>
      <polygon class="b" points="109.62 82.69 109.62 82.26 109.62 81.91 109.62 81.56 109.62 81.13 109.53 80.86 109.44 80.52 109.36 80.17 109.27 79.91 109.09 79.65 108.83 79.47 108.66 79.3 108.4 79.12 108.14 78.95 107.79 78.86 107.44 78.86 107 78.86 106.57 78.86 106.13 78.95 105.7 79.04 105.26 79.21 104.92 79.47 104.57 79.73 104.22 80.08 103.87 80.43 103.35 81.3 102.83 82.26 102.48 83.39 102.22 84.61 101.95 85.91 101.78 87.13 101.78 88.26 101.95 89.22 102.13 89.57 102.3 90 102.48 90.27 102.74 90.53 103.09 90.79 103.44 90.88 103.87 90.96 104.39 91.05 104.92 91.05 105.35 90.96 105.7 90.88 106.13 90.7 106.83 90.35 107.35 89.83 107.88 89.22 108.22 88.61 108.48 87.92 108.75 87.13 119.98 87.13 119.72 88.26 119.19 89.31 118.67 90.27 117.97 91.22 117.19 92.01 116.23 92.7 115.28 93.4 114.14 93.92 113.01 94.44 111.71 94.88 110.4 95.23 109.01 95.58 107.53 95.75 106.05 95.92 104.48 96.01 102.91 96.1 101.34 96.01 99.86 95.92 98.47 95.75 97.17 95.49 95.95 95.05 94.81 94.62 93.77 94.1 92.81 93.49 92.03 92.79 91.33 91.92 90.72 91.05 90.29 90 90.03 88.87 89.94 87.65 89.94 86.35 90.2 84.87 90.55 83.48 90.98 82.17 91.59 80.95 92.29 79.82 93.08 78.86 94.03 77.9 94.99 77.12 96.12 76.42 97.34 75.81 98.65 75.21 100.04 74.77 101.52 74.42 103.09 74.16 104.74 73.99 106.48 73.81 108.31 73.81 109.53 73.81 110.83 73.9 112.06 73.99 113.27 74.16 114.4 74.42 115.54 74.77 116.58 75.12 117.54 75.55 118.41 76.16 119.19 76.77 119.8 77.47 120.33 78.34 120.5 78.77 120.67 79.21 120.76 79.73 120.85 80.25 120.85 80.86 120.85 81.47 120.76 82.08 120.67 82.69 109.62 82.69"/>
      <path class="b" d="M137.09,90.61l.22-.09.43-.18.44-.26.35-.35.35-.35.26-.35.61-.87.44-1,.35-1.13.26-1.13.26-1.22V81.65l-.26-.87-.09-.35-.26-.35-.17-.26-.35-.26-.35-.26-.35-.09-.43-.09-.52-.09-.52.09-.43.09-.22,0V73.84l.48,0H141l1.66.09,1.57.18,1.39.26,1.3.35,1.22.44,1.13.52,1,.52.78.7.7.87.26.44.26.44.26.52.17.52.26,1.13.09,1.22L153,83.39,152.71,85l-.35,1.48-.52,1.39L151.24,89l-.7,1.13-.78,1-1,1-1,.79-1.13.7-1.22.61-1.31.52-1.3.35-1.48.35-1.57.26-1.57.17-1.17.06Zm-1.18.17h.52l.44-.09.22-.09V96l-.48,0-1.74.09L133.13,96l-1.65-.09-1.57-.17-1.39-.26-1.31-.35L126,94.79l-1-.52-1-.61-.87-.7-.69-.79-.26-.43-.26-.52-.26-.44-.17-.61L121.2,89l-.09-1.22.09-1.39.26-1.48.35-1.57.52-1.39.61-1.22.69-1.13.78-1,1-.87,1-.87,1.13-.7,1.22-.52,1.31-.52,1.3-.44,1.48-.35,1.57-.26,1.57-.18,1.18-.06v5.42l-.22,0-.44.26-.44.26-.35.26-.35.35-.26.35-.61.87-.44,1-.35,1L133.39,85l-.17,1.13-.09,1.13v1l.26.87.09.35.26.35.26.35.26.26.35.18.35.17.44.09Z"/>
      <path class="b" d="M155.8,75.29H156l.09-.09h.09l.09-.09V75h.09v-.26h-.09v-.09h-.09v-.09h-.35v-.35h.26l.09.09h.26v.09h.09v.09h.09v.09h.09v.52l-.09.09v.09h-.09v.09h-.09l-.09.09h-.17v.09h0v.09h.09v.09h.09v.09h.09v.09l.09.09.09.09.26.43h-.43l-.17-.35-.09-.09-.09-.09V75.9l-.09-.09-.09-.09-.09-.09h0v-.35Zm0,2.18h.44l.17-.09h.09l.17-.09h.09l.17-.09.09-.09.17-.09.09-.09.09-.09.09-.09.09-.09.09-.18.09-.09.09-.09v-.17l.09-.09V75.9l.09-.09v-.87l-.09-.09v-.17l-.09-.09v-.17l-.09-.09-.09-.17-.09-.09-.09-.09-.09-.09-.09-.09-.17-.09-.09-.09-.09-.09-.17-.09-.09-.09h-.17l-.09-.09h-.61v.35h.52l.09.09h.09l.09.09h.17l.09.09.09.09.09.09.09.09h.09l.09.17.09.09v.09l.09.09v.09l.09.17v.09l.09.09v.7l-.09.09v.09l-.09.17v.09l-.09.09v.09l-.09.09-.09.09-.09.09-.09.09-.09.09-.09.09h-.09l-.09.09-.17.09h-.09l-.09.09h-.52Zm-.52-2.18h.52v.35h-.09l-.09-.09h-.35v1h-.35V74.25h.87v.35h-.52v.7Zm.52-2h-.43l-.17.09h-.09l-.18.09-.09.09-.17.09-.09.09-.09.09-.09.09-.09.09-.09.09-.09.09-.09.17-.09.09-.09.17v.09l-.09.17v.35l-.09.17.09.18v.35l.09.17v.09l.09.17.09.09.09.09v.18l.09.09.17.09.09.09.09.09.09.09.17.09.09.09h.18l.09.09h.17l.09.09h.35v-.35h-.35l-.18-.09h-.09l-.09-.09-.09-.09h-.09l-.17-.09-.09-.09-.09-.09v-.09l-.09-.09-.09-.09-.09-.09v-.09l-.09-.09V75.9l-.09-.09v-.87l.09-.09v-.17l.09-.09v-.09l.09-.09.09-.09.09-.17.09-.09.17-.09.09-.09.09-.09h.09l.09-.09h.09l.18-.09h.35Z"/>
    </g>
  </g>
</svg>
