<svg xmlns="http://www.w3.org/2000/svg" viewBox="0 0 277.59 99.11">
  <defs>
    <style>
      .a {
        font-size: 48px;
        font-family: BoucherieBlock-Bold, Boucherie Block;
      }

      .a, .f {
        fill: #004481;
      }

      .b {
        font-weight: 700;
      }

      .c {
        font-size: 32px;
        font-family: FreightSansProBook-Regular, FreightSans Pro;
      }

      .d {
        font-size: 26px;
        font-family: FreightSansProMedium-Regular, FreightSans Pro;
      }

      .e {
        letter-spacing: 0em;
      }
    </style>
  </defs>
  <title>logo</title>
  <g>
    <text class="a" transform="translate(110.36 60.12)"><tspan class="b">Phoenix</tspan><tspan class="c" x="159.93" y="0" xml:space="preserve"> </tspan><tspan class="d"><tspan class="e" x="8.96" y="24">R</tspan><tspan x="23.26" y="24">V &amp; CAMPER</tspan></tspan></text>
    <g>
      <path class="f" d="M12.91,56.52a14.12,14.12,0,0,1,1.24,1.12A12,12,0,0,0,15.62,59c.81.67,1.66,1.29,2.5,1.92.22.17.46.33.69.48a6.08,6.08,0,0,0,2.17,1,2.92,2.92,0,0,1,1.15.42c.25.18.63.17.88.35a2.75,2.75,0,0,0,1,.47l.75.15a1.66,1.66,0,0,1,.5.09,5.14,5.14,0,0,0,1.3.66,6.56,6.56,0,0,0,1.09.38,4.25,4.25,0,0,1,1.46.63c1,.54,2,1.11,2.93,1.67.06,0,.12.08.17.08.7,0,1,.53,1.5.9s.84.72,1.27,1.1A2,2,0,0,0,35.23,68c.78,0,1.09.44,1.32,1,.33.79.62,1.6.95,2.4a12.5,12.5,0,0,1,.66,1.54,2.74,2.74,0,0,0,.48.76c.4.58.85,1.12,1.2,1.73s1,1.36,1.52,2,1.25,1.58,1.89,2.37a3.69,3.69,0,0,1,.47.67c.14.27.47.44.66.7.78,1.09,1.77,2,2.56,3.14a.5.5,0,0,0,0-.55,3.6,3.6,0,0,1-.28-1.45.16.16,0,0,0,0-.06,13.76,13.76,0,0,1-.4-2,6.72,6.72,0,0,1-.13-.82c-.05-.41-.07-.82-.14-1.22a13.32,13.32,0,0,1-.12-2.51A5,5,0,0,1,46,73.85a1.56,1.56,0,0,0,.06-.58,7.77,7.77,0,0,1,.47-2.19,6.76,6.76,0,0,1,.13-.69,8.63,8.63,0,0,1,.71-1.58,4.94,4.94,0,0,0,.64-2.14,4.66,4.66,0,0,0,0-1.78,10.21,10.21,0,0,1-.1-1.47,8,8,0,0,0-.86-2.66c-.25-.52-.45-1.07-.66-1.6l-.3-.77a29,29,0,0,1-1.3-3.76,10.56,10.56,0,0,1-.11-2.32,3,3,0,0,1,.73-1.95,5.24,5.24,0,0,0,.45-1,9.33,9.33,0,0,0,.36-2.09,1.18,1.18,0,0,0,0-.39c-.08-.83-.17-1.67-.25-2.5a.53.53,0,0,1,0-.13c.21-.18.38-.07.57.05a2.69,2.69,0,0,0,.75.37c.5.13.73-.07.75-.58a5.46,5.46,0,0,0-.14-1.21,17,17,0,0,0-1.09-2.8l-.09-.25A1.5,1.5,0,0,1,48,40c.36.19.71.4,1.07.59a1,1,0,0,0,.43.09c-.53-.29-.43-1-.86-1.3s-.64-.84-1.21-1.06a3,3,0,0,1,.17.57c0,.08-.09.2-.17.25s-.4.35-.78.19L45.31,36a1.76,1.76,0,0,1,.56-.13,5.1,5.1,0,0,1,1.9.53,6.46,6.46,0,0,1,2.31,2.09A8.18,8.18,0,0,1,51.38,41,13.43,13.43,0,0,0,52,42.69,10,10,0,0,1,52.47,44a2.64,2.64,0,0,0,1.28,1.7,1.08,1.08,0,0,0,1,0l1-.38c.2.13.16.29.09.46a.34.34,0,0,1-.08.1,12,12,0,0,1-1.49,1.32,5.72,5.72,0,0,1-2.55.8,4.89,4.89,0,0,1-1.2-.17l-.42-.09c-.61,1-1.24,2-1.81,3a20.52,20.52,0,0,0-.85,1.87c-.11.25-.16.52-.28.77-.37.77,0,1.52,0,2.28a.28.28,0,0,0,.08.17,11.09,11.09,0,0,1,1.13,2.1c.3.52.6,1,1,1.52a5.21,5.21,0,0,1,1.11,2.83c0,.72.22,1.44.33,2.16a2.1,2.1,0,0,1,0,.64c-.14.83-.36,1.64-.44,2.47a14.71,14.71,0,0,1-.59,2.61,12.22,12.22,0,0,0-.55,4.32,3.28,3.28,0,0,0,1,2.37,1.76,1.76,0,0,0,.3.16c.27-.48.74-.78.94-1.29a.71.71,0,0,1,.14-.22c1-1.14,2.08-2.3,3.15-3.41.69-.71,1.44-1.37,2.17-2a3,3,0,0,0,.81-1.38.79.79,0,0,1,.09-.24c.08-.11.19-.28.29-.28a.53.53,0,0,1,.34.24,4.62,4.62,0,0,1,.25.52c.08.15.18.28.28.44l1.35-1.12a.61.61,0,0,1,.16-.1,17.72,17.72,0,0,0,2.24-1.39c.06,0,.1-.11.16-.11.59,0,.95-.48,1.41-.72a6.53,6.53,0,0,1,1.3-.54,26.25,26.25,0,0,0,2.88-1.12c.75-.31,1.55-.5,2.33-.75a5.21,5.21,0,0,0,.58-.26c.1,0,.19-.14.28-.14a5.41,5.41,0,0,0,2.07-.83c.21-.1.42-.21.62-.32a5.74,5.74,0,0,0,.57-.31c.59-.4,1.17-.8,1.74-1.22.4-.29.78-.61,1.15-.94.6-.52,1.19-1.06,1.77-1.59s1.19-1.06,1.75-1.62,1-1.15,1.56-1.72l0-.06c.48-.54,1-1.07,1.45-1.62.19-.22.34-.49.53-.72s.57-.7.86-1c.08-.1.15-.21.32-.44a9.44,9.44,0,0,1-.34,1.83,1,1,0,0,0-.1.37,7.41,7.41,0,0,1-1.68,3.92q-.52.7-1,1.41a14.09,14.09,0,0,1-2,2.1c-.35.32-.65.69-1,1s-.42.34-.61.53c-.34.35-.64.74-1,1.08-.6.59-1.22,1.16-1.82,1.74-.23.22-.39.55-.66.69-.74.41-1.23,1.12-2,1.48a2.62,2.62,0,0,0-.53.36,3.11,3.11,0,0,1-1,.49c-1,.35-2,.72-3,1.08a.92.92,0,0,1-.3.11,5.49,5.49,0,0,0-2.13.64c-.5.19-1,.35-1.51.54-.18.07-.34.19-.51.27-.53.27-1.08.51-1.6.81s-1,.64-1.52,1-.93.7-1.41,1-1,.94-1.6,1.28a2.09,2.09,0,0,0-.41.4c-.25.26-.52.51-.76.78s-.59.68-.86,1-.63.87-.94,1.31a17.07,17.07,0,0,0-.86,2.14c-.14.26-.22.56-.35.83A7.39,7.39,0,0,0,54,82.07a9.76,9.76,0,0,1-.54,1.17.81.81,0,0,0-.07.42c0,.32.15.62.19.94a10,10,0,0,1,.13,1.8,5.28,5.28,0,0,1-.4,2.2,8.47,8.47,0,0,1-2,2.57c-.13.11-.29.18-.43.28s-.54.42-.81.61a3.36,3.36,0,0,0-1.18,1.48c0,.08-.06.2-.12.22-.62.25-.51.78-.49,1.26s.08.86.12,1.29a1.23,1.23,0,0,1-.27,1,10.89,10.89,0,0,0-.79,1.23c-.11.18-.25.34-.41.56-.14-.13-.28-.2-.34-.32-.25-.49-.71-.85-.82-1.44a.86.86,0,0,0-.4-.48,1.22,1.22,0,0,1-.66-1.27,7,7,0,0,0,0-1.15,15.22,15.22,0,0,0-.2-1.59.71.71,0,0,0-.26-.43c-.57-.38-1-1-1.65-1.22a.73.73,0,0,1-.24-.21,2.06,2.06,0,0,0-.26-.29,5,5,0,0,1-1.46-1.94,4.77,4.77,0,0,1-.49-1.44,13.32,13.32,0,0,1,0-2.65,2.4,2.4,0,0,1,.17-.68,1.15,1.15,0,0,0-.09-1c-.38-.76-.68-1.56-1-2.35s-.7-1.75-1-2.64a4.92,4.92,0,0,0-1.1-1.42c-.54-.64-1.09-1.27-1.65-1.9-.13-.14-.3-.25-.44-.38l-.64-.62c-.09-.09-.17-.23-.28-.26a4.34,4.34,0,0,1-1.27-.88c-.19-.14-.4-.25-.6-.38-.41-.27-.82-.55-1.24-.81-.2-.12-.42-.2-.62-.31l-.9-.5a13.29,13.29,0,0,0-1.82-.79c-.46-.17-.9-.41-1.36-.58s-.82-.23-1.23-.34-1.08-.27-1.61-.43c-.33-.1-.63-.28-1-.4a6.5,6.5,0,0,1-.85-.29c-.54-.3-1.06-.66-1.59-1-.05,0-.09-.11-.14-.13a6.34,6.34,0,0,1-1.52-1,11.9,11.9,0,0,1-1.08-1,13.14,13.14,0,0,1-2.5-3.67c-.25-.52-.43-1.08-.68-1.61-.37-.78-.76-1.55-1.15-2.32C13,56.86,13,56.75,12.91,56.52Z"/>
      <path class="f" d="M50.57.23A1.58,1.58,0,0,1,51.85.05a24.51,24.51,0,0,1,2.72.51,18.62,18.62,0,0,1,3.81,1.1c.55.27,1.18.38,1.75.62a15.42,15.42,0,0,1,1.41.78,1.74,1.74,0,0,0,.28.17A11.83,11.83,0,0,1,64.36,4.7a21.62,21.62,0,0,1,3,2.34c.6.56,1.22,1.1,1.79,1.69s1,1.1,1.45,1.65c.23.26.48.5.7.76s.25.39.39.57a2.36,2.36,0,0,0,.44.55,2.77,2.77,0,0,1,.65.87c.17.27.38.52.56.79.48.74,1,1.46,1.41,2.23A28,28,0,0,1,76,18.67c.44,1,.79,2,1.18,3a.62.62,0,0,1,.07.18c0,1,.56,2,.7,3a11,11,0,0,1,.2,1.66,13.42,13.42,0,0,0,.11,2.23,3.42,3.42,0,0,0,.3-.94,32.78,32.78,0,0,0,.06-3.42,23,23,0,0,0-.37-2.48A16.28,16.28,0,0,0,77.51,19a16.37,16.37,0,0,1-.55-2c-.16-.64-.32-1.29-.49-1.93a1.79,1.79,0,0,1,0-1c.34.68.66,1.34,1,2C78,17,78.5,18,79.06,19a12.27,12.27,0,0,1,.82,2.31,18.14,18.14,0,0,1,.51,3,16,16,0,0,1,0,1.88,25.72,25.72,0,0,1-.24,3.41,41.44,41.44,0,0,1-.87,4.68.7.7,0,0,0,.05.41,8.2,8.2,0,0,0,1-2.12c.06-.25.17-.49.25-.73l.81-2.49a1.59,1.59,0,0,0,.08-.38c0-.71,0-1.42.13-2.13a16.84,16.84,0,0,0-.15-3.4,6.39,6.39,0,0,0-.64-1.94c-.39-.9-.84-1.79-1.3-2.66s-.88-1.58-1.29-2.39c-.68-1.33-1.33-2.66-2-4A1,1,0,0,1,76.1,12a20.21,20.21,0,0,1,.05-2.27A8.77,8.77,0,0,1,77.58,6a6.34,6.34,0,0,1,.84-.88c.12-.13.29-.16.39,0a.37.37,0,0,1,0,.34A17.51,17.51,0,0,0,77.6,8.62,6,6,0,0,0,77.78,11a33.41,33.41,0,0,0,1.44,3.3,19.32,19.32,0,0,1,1.14,2.52c.33.93.75,1.81,1.17,2.7.09.19.08.42.15.62.29.78.6,1.56.89,2.34a2.29,2.29,0,0,1,.15.68c0,.56,0,1.12,0,1.68,0,1.18,0,2.38-.14,3.55A6.6,6.6,0,0,1,82.38,30a12.54,12.54,0,0,0-.13,1.34,31.49,31.49,0,0,1-1.19,4.4c-.23.58-.47,1.15-.71,1.75l.47.12c-.19.63-.35,1.24-.58,1.83s-.53,1.1-.74,1.68a3.23,3.23,0,0,0,.93-1,7.71,7.71,0,0,1,.56-.71,1.93,1.93,0,0,0,.52-.72c.05-.19.29-.34.47-.53a.74.74,0,0,1,0,.69c-.16.46-.3.94-.43,1.41s-.18.75-.28,1.12c0,.08-.07.19-.12.21-.38.12-.38.44-.39.73-.05,1-.08,2.08-.12,3.13,0,.28,0,.51.32.62l.07,0c.46-.57.93-1.13,1.38-1.7.26-.34.48-.71.74-1a7,7,0,0,0,.88-1.48,4.88,4.88,0,0,1,.52-.65c.26-.37.48-.75.74-1.12a12.59,12.59,0,0,1,1.48-1.93,2.8,2.8,0,0,0,.34-.47,1.88,1.88,0,0,1,.16-.28l1.54-1.54.62-.63a.9.9,0,0,1,.14-.13,12.94,12.94,0,0,1,3.24-1.86.94.94,0,0,1,.86.05,9.54,9.54,0,0,1-.92.5,2.29,2.29,0,0,0-1.18.93,3.75,3.75,0,0,1-.86.77c-.6.5-1.22,1-1.8,1.48a4,4,0,0,0-.68.84c-.6.94-1.18,1.9-1.77,2.85a6,6,0,0,0-.34.62c-.46,1-.88,2.05-1.39,3a36.25,36.25,0,0,1-2,3.07,12.11,12.11,0,0,0-1.31,1.82c-.07.17-.26.29-.39.42s-.26.19-.32.32a17.53,17.53,0,0,1-1.56,2,5.91,5.91,0,0,1-.76.78l-1,1c-1,1-2,2-2.94,3-.59.63-1.13,1.3-1.69,2a.8.8,0,0,0-.18.27,16.06,16.06,0,0,1-1.27,2.3,4.6,4.6,0,0,1-.58.77,1.37,1.37,0,0,0-.23.31c-.12.31-.24.64-.56.75a3.39,3.39,0,0,1-1.63.33c-.09,0-.23-.09-.24-.16a.43.43,0,0,1,.1-.33,12.5,12.5,0,0,0,2.23-3c.24-.41.55-.77.8-1.17s.4-.75.59-1.11c-.37-.38-.4-.41-.08-.78A8.94,8.94,0,0,0,73,54.5a16.66,16.66,0,0,0,.74-2A16,16,0,0,0,74.35,50a10.46,10.46,0,0,0,.34-2.09,5,5,0,0,1,.15-1,3.67,3.67,0,0,0-1.1,1.25c-.19-.06-.18-.19-.16-.35a13.18,13.18,0,0,0,.25-1.58c0-1,0-2.07,0-3.11,0-.67,0-1.34-.11-2s-.19-1.18-.3-1.77c0-.09-.12-.17-.2-.29-.45.53-.37,1.25-.67,1.8-.26-.1-.26-.27-.25-.45a9.49,9.49,0,0,0-.26-2.93c-.13-.56-.32-1.11-.47-1.67s-.19-.87-.32-1.3a2.87,2.87,0,0,0-.47-.93,1.92,1.92,0,0,0,0,.4,18.64,18.64,0,0,1-.29,3.8,4.72,4.72,0,0,1-.55,1.5A15.55,15.55,0,0,1,68.89,41a11.7,11.7,0,0,1-1.57,2,17.81,17.81,0,0,0-1.43,1.72,2.76,2.76,0,0,1-.32.32c-.06.06-.17.07-.22.14-.49.68-1.25,1.1-1.73,1.79a1,1,0,0,1-.22.23,32.57,32.57,0,0,0-3.57,3.22c-.66.67-1.24,1.42-1.88,2.09s-1,1.19-1.52,1.74-1,1.24-1.58,1.78a10.94,10.94,0,0,1-1.92,1.71c-.26.15-.43.46-.7.57a5.37,5.37,0,0,1-2.43.53.55.55,0,0,1-.39-.17,11.42,11.42,0,0,1-1.26-2.43,2.9,2.9,0,0,1,.49,0,4.4,4.4,0,0,0,3.68-.93l.54-.35a2,2,0,0,0,.53-.36,2.41,2.41,0,0,1,1-.79.7.7,0,0,0,.21-.14c.57-.56,1.12-1.12,1.69-1.67s1-.93,1.5-1.41c.26-.25.47-.56.73-.82.43-.42.88-.82,1.31-1.23.2-.19.36-.41.55-.62a1.89,1.89,0,0,1,.41-.41c.64-.36,1-1,1.52-1.48.74-.62,1.37-1.35,2.07-2,1.07-1,2.16-2,3.22-3.08a4.28,4.28,0,0,0,.61-.9c.21-.35.37-.72.58-1.07a6.74,6.74,0,0,0,.58-1.9,17.29,17.29,0,0,0,.26-4.31,10.28,10.28,0,0,0-.15-1.21c-.07-.57-.13-1.15-.23-1.72s-.24-.91-.36-1.36c0-.14-.09-.28-.15-.45s.19-.1.23-.08.36.21.41.37c.39,1,1.11,1.88,1.55,2.88a4.19,4.19,0,0,0,.48.74.6.6,0,0,0,.79.21,3.54,3.54,0,0,0,1.42-.86,11.6,11.6,0,0,0,2.32-4.88A10.19,10.19,0,0,0,76,23.35c-.09-.44-.13-.89-.18-1.34a2.31,2.31,0,0,0-.44-1.12,10.12,10.12,0,0,0,0,1.23c0,.41,0,.82,0,1.23a1.28,1.28,0,0,1-.4,1.11,1.84,1.84,0,0,1-.18-.78,13.84,13.84,0,0,0-.77-3.9c-.14-.45-.21-.92-.34-1.38a14.93,14.93,0,0,0-1.75-4A11.31,11.31,0,0,0,70.7,13q-.87-1-1.79-1.87c-.49-.48-1-.92-1.53-1.39-.31-.29-.62-.59-.91-.91a23,23,0,0,0-2.56-2.47A31.52,31.52,0,0,0,60.74,4a28,28,0,0,0-2.84-1.5,21,21,0,0,0-2.45-1c-.93-.31-1.88-.58-2.83-.84C52.09.59,51.54.51,51,.39A3.21,3.21,0,0,1,50.57.23Z"/>
      <path class="f" d="M18.86,24.59c-.25-1.2-.16-2.37-.48-3.51a8.24,8.24,0,0,0-.36,1.2,15.27,15.27,0,0,0-.2,2.24A11.65,11.65,0,0,0,18,26.71a14.5,14.5,0,0,0,.54,1.57,10.63,10.63,0,0,0,1.75,3.07,7.64,7.64,0,0,0,1,1,.41.41,0,0,0,.59,0c.61-.62,1.38-1.12,1.56-2.06a.5.5,0,0,1,.08-.17,11.68,11.68,0,0,0,1.05-1.84.37.37,0,0,1,.55-.25c-.14.53-.31,1.05-.41,1.59s-.18,1.27-.23,1.91a20.7,20.7,0,0,0-.1,2.33A23.41,23.41,0,0,0,24.72,37a15.23,15.23,0,0,0,.7,2,8.82,8.82,0,0,0,1.51,2.36.79.79,0,0,0,.12.16l1.59,1.3.2.16,3.22,3c1,.91,2,1.83,2.92,2.76a16,16,0,0,1,2.18,2.55c.17.25.37.47.54.68l-.92,1.75c-.38-.68-.79-1.43-1.21-2.16-.17-.3-.38-.57-.58-.85s-.37-.58-.59-.84a10.45,10.45,0,0,0-2.27-2.17,40.86,40.86,0,0,1-3.66-2.93,15.23,15.23,0,0,1-1.56-1.64c-.39-.43-.74-.9-1.11-1.35a.88.88,0,0,1-.08-.1c-.43-.72-.89-1.42-1.27-2.16a17.81,17.81,0,0,1-.91-2.12,7.93,7.93,0,0,1-.32-1.44c-.11-.67-.18-1.35-.28-2.19a15.07,15.07,0,0,0-.76,2.45,22.75,22.75,0,0,0-.52,2.44c-.07.81-.08,1.62-.13,2.58A2.15,2.15,0,0,1,21,40a1.43,1.43,0,0,0-.35-.86c-.07,0-.13.05-.13.08-.12.63-.23,1.26-.34,1.89A19.52,19.52,0,0,0,20,45.17a14.78,14.78,0,0,0,.28,2.11,1.19,1.19,0,0,0,.15.41.57.57,0,0,1,0,.7c-.56-.41-.68-1.15-1.26-1.59a1.47,1.47,0,0,0,0,.43,8,8,0,0,1,.28,1.71,8.78,8.78,0,0,0,.31,1.38c.16.66.31,1.33.5,2s.35,1,.54,1.5a12.4,12.4,0,0,0,.53,1.37c.43.84.91,1.65,1.39,2.51l-.37-.06c-.19.24,0,.43.12.61C23,59.15,23.56,60,24.14,61c.14.22.26.44.41.65a3,3,0,0,0,.88,1.1c.13.08.19.27.28.4a.44.44,0,0,1-.42.23,3.18,3.18,0,0,1-2-.85.47.47,0,0,1-.11-.15,20.3,20.3,0,0,0-1.08-1.9c-.4-.57-.65-1.27-1.29-1.65a.34.34,0,0,1-.1-.08l-1.11-1.49a2.13,2.13,0,0,0-.14-.21c-.7-.73-1.4-1.46-2.09-2.2-.38-.41-.73-.85-1.09-1.27a1.4,1.4,0,0,0-.37-.35,2.06,2.06,0,0,1-.69-.65c-.48-.63-1-1.22-1.53-1.82-.15-.18-.29-.37-.43-.56a5.57,5.57,0,0,0-.34-.47,21.68,21.68,0,0,1-2.17-2.89c-.13-.19-.29-.36-.44-.54a3.21,3.21,0,0,1-.28-.36c-.37-.63-.75-1.26-1.1-1.9-.11-.2-.12-.45-.22-.66-.29-.6-.6-1.18-.9-1.77,0-.06-.1-.11-.1-.16-.07-.66-.61-1.07-.87-1.63a15.53,15.53,0,0,0-.76-1.41c-.18-.29-.41-.55-.6-.83a14.81,14.81,0,0,0-2.86-2.8,3.88,3.88,0,0,0-1.65-1,2.53,2.53,0,0,1-.72-.45.37.37,0,0,1,.5-.14,5.74,5.74,0,0,1,2.4,1.16.48.48,0,0,0,.09.09A9.29,9.29,0,0,1,5,35.76a15.38,15.38,0,0,1,1.84,2c.16.2.35.38.51.58s.33.45.48.68a1.43,1.43,0,0,0,.13.22c.8.77,1.22,1.82,1.93,2.65a8.34,8.34,0,0,0,1.31,2c.49.73,1.07,1.4,1.6,2.1.11.14.24.21.38.11a.31.31,0,0,0,.08-.28,6.91,6.91,0,0,1-.1-2.44,3,3,0,0,0-.16-1c-.21-.67-.49-1.32-.73-2a.3.3,0,0,1,0-.12,4.32,4.32,0,0,0-.34-1.5c0-.12-.05-.24-.08-.4a.45.45,0,0,1,.51.21l.82,1.14,1,1.29.18.27.14-.07a1.53,1.53,0,0,0-.07-.37c-.27-.6-.58-1.19-.83-1.8-.18-.43-.29-.89-.44-1.37l.52-.08a.38.38,0,0,0,0-.13c-.11-.23-.23-.45-.33-.69-.21-.51-.42-1-.6-1.55a8.3,8.3,0,0,1-.52-1.84,11.36,11.36,0,0,0-.38-1.49c-.09-.36-.3-.73,0-1.1,0-.05,0-.17,0-.25,0-.78.06-1.56.05-2.33a2.44,2.44,0,0,1,.48-1.72c0,.45,0,.84,0,1.23a6,6,0,0,0,.35,1.89c.15.67.39,1.32.57,2a28.34,28.34,0,0,0,1.12,2.93.32.32,0,0,0,.23.17c-.07-.44-.14-.89-.23-1.33-.13-.71-.33-1.42-.4-2.14a22.7,22.7,0,0,1-.34-2.61c0-.73-.08-1.46-.08-2.2s.05-1.33.08-2c0-.15,0-.3,0-.45,0-.36.08-.72.13-1.08a10.26,10.26,0,0,1,.2-1.13,3.25,3.25,0,0,1,.78-1.51,12.69,12.69,0,0,1,1.81-1.67c-.15.69-.48,1.31-.66,2s-.31,1.33-.43,2a18.92,18.92,0,0,0-.29,2.1,15,15,0,0,0,0,2.07,12.91,12.91,0,0,0,.35,2.1c0-.24,0-.49,0-.73a12.35,12.35,0,0,1,.22-2.37,16.4,16.4,0,0,1,.66-2.74c.08-.24,0-.52.11-.76.2-.61.45-1.2.68-1.8s.36-1,.57-1.5.38-.68.55-1A15,15,0,0,1,19,16.46a31.78,31.78,0,0,1,1.87-2.93c.52-.65.91-1.4,1.43-2S23.62,10,24.29,9.32s1.57-1.67,2.44-2.41a8.35,8.35,0,0,1,1.78-1.37c.28-.13.46-.45.72-.63A16.39,16.39,0,0,1,31.4,3.52a20.73,20.73,0,0,1,2.33-1.19c1-.32,1.88-.8,2.85-1.12.4-.14.83-.19,1.25-.28.79-.19,1.57-.42,2.37-.56S41.86.13,42.69,0a2.36,2.36,0,0,1,.62.11c0,.1-.06.16-.08.17-.62,0-1.16.4-1.79.42a2.22,2.22,0,0,0-1,.27c-.49.29-1,.18-1.54.41s-.94.41-1.41.6-.78.24-1.16.4-.8.39-1.21.59C34,3.51,33,4.19,32,4.79a7.3,7.3,0,0,0-.72.54l-.57.42c-.07,0-.17.06-.23.12L28.9,7.31c-.19.18-.39.34-.58.52s-.28.32-.43.47a29.73,29.73,0,0,1-3.1,3.32A13.76,13.76,0,0,0,22,14.46a1.67,1.67,0,0,0-.21.32q-.46,1.1-.9,2.21c-.14.36-.25.73-.41,1.09a6.44,6.44,0,0,0-.52,1.85,8.7,8.7,0,0,1-.29,1.17c-.14.54-.29,1.07-.41,1.61a5.63,5.63,0,0,0-.11.89A1.84,1.84,0,0,1,18.86,24.59Z"/>
      <path class="f" d="M59.74,65.27c-.17-.27-.3-.26-.43-.14a9.26,9.26,0,0,1-2.19,1.41,1,1,0,0,0-.35.17c-.39.39-.93.38-1.47.67a3,3,0,0,1,.23-.54,1.12,1.12,0,0,0,.12-.91,1.75,1.75,0,0,1,.57-1.69,1.76,1.76,0,0,0,.67-1.39,16.29,16.29,0,0,1,.3-1.9,2.67,2.67,0,0,0,0-.32,5.05,5.05,0,0,1-2,1.1.48.48,0,0,1,.1-.59,6.5,6.5,0,0,0,.57-.85c.24-.43.48-.86.69-1.3.42-.89.81-1.79,1.22-2.68a1.34,1.34,0,0,0,.16-.46,19.28,19.28,0,0,1-3.57,2.78,1.31,1.31,0,0,1,.48-.92,11.29,11.29,0,0,0,1.73-2.23,2.66,2.66,0,0,0,.28-.57,6.84,6.84,0,0,1,.76-1.18,13,13,0,0,1,1.67-1.89c.35-.35.69-.7,1-1a2,2,0,0,1,.32-.2,1.39,1.39,0,0,0,.37-.25,14.77,14.77,0,0,1,1.57-1.42,17.63,17.63,0,0,1,1.46-1.17c.61-.48,1.21-1,1.82-1.44.15-.12.37-.15.5-.27a10.53,10.53,0,0,0,1.73-1.71c.59-.87,1.2-1.72,1.8-2.59.17-.24.3-.51.45-.77l.42-.67a.58.58,0,0,1,.36.6c0,1,0,1.95-.08,2.91a19.25,19.25,0,0,1-.47,2.2c0,.15-.06.29-.08.44,0,.38-.08.75-.12,1.14.44-.15.46-.15,1.26-1.81.32-.67.58-1.37.91-2.16a1.43,1.43,0,0,1,.16.39c0,.82.05,1.65,0,2.47a7.6,7.6,0,0,1-.37,1.63c-.19.63-.46,1.25-.67,1.88-.11.32-.13.66-.25,1-.32.87-.79,1.67-1.12,2.53,0,.05,0,.11-.06.19a8.44,8.44,0,0,0,1.3-1.36c.54-.65.95-1.37,1.42-2.06a1,1,0,0,1,.17-.16.33.33,0,0,1,.15.46c-.21.58-.38,1.19-.63,1.76s-.6,1.09-.89,1.64a16.33,16.33,0,0,1-1,1.57,36.4,36.4,0,0,1-2.45,3.22c-.41.49-.85,1-1.24,1.48a10.33,10.33,0,0,1-.76.79,3.17,3.17,0,0,0-.5.65,14.84,14.84,0,0,0,4.53-3.41.47.47,0,0,1,0,.6c-.19.33-.43.64-.65,1a3.13,3.13,0,0,0-.23.31,9.36,9.36,0,0,1-1.83,2.21,13.51,13.51,0,0,1-2.52,2l-.21.15c-.4.31-.67.8-1.29.79-.2,0-.42.2-.62.33a8.46,8.46,0,0,1-2.84,1.3,3,3,0,0,0-.74.37c-.17.09-.32.21-.51.34l-.27-.31Z"/>
      <path class="f" d="M21.12,42.52a.88.88,0,0,1,.46.63,14.47,14.47,0,0,0,.93,2.53,5.3,5.3,0,0,0,1,1.44,1.65,1.65,0,0,0-.07-.61,3.76,3.76,0,0,1-.25-1.32c-.06-.34-.1-.68-.15-1,0-.11-.07-.21-.08-.31a22.25,22.25,0,0,1-.3-4.24,4.34,4.34,0,0,1,.13-.59.58.58,0,0,1,.55.47,1.29,1.29,0,0,0,.18.47c.68.93,1.2,2,1.87,2.92.46.65,1,1.19,1.5,1.84,0,.05.07.14.11.15.74.21,1.16.87,1.73,1.3a25,25,0,0,1,2.71,2.49A9.79,9.79,0,0,1,33.56,52a1.3,1.3,0,0,0,.16.28,18.29,18.29,0,0,0,1.73,2.32,6.12,6.12,0,0,1,.44.59c-.25,0-.41,0-.51,0a3.31,3.31,0,0,1-.52-.38c-.35-.28-.71-.55-1.06-.84s-.4-.39-.59-.59a6.06,6.06,0,0,0-.81-.71A4.76,4.76,0,0,0,33,54.14c.2.51.36,1,.58,1.55s.49,1,.74,1.43l.75,1.4c-.67.28-.92.16-2-1a.62.62,0,0,0,0,.61,9.6,9.6,0,0,1,.21,1c.25.8.18,1.66.49,2.45s.58,1.71.87,2.56a5.75,5.75,0,0,0,.27.57c-.15.22-.31.12-.5,0a7.31,7.31,0,0,0-1-.39,1.61,1.61,0,0,0-.53,0,6.63,6.63,0,0,0,1,2.35c-.11,0-.24.13-.29.1a1.5,1.5,0,0,0-.87-.2.41.41,0,0,1-.24-.09A3.86,3.86,0,0,0,31,65.93a6.94,6.94,0,0,1-1.93-1A12.94,12.94,0,0,1,26.66,63l0,0a7.77,7.77,0,0,1-1.13-.85,7.24,7.24,0,0,1-.76-1.18c-.12-.2-.23-.41-.36-.61s-.37-.58-.58-.85a1.87,1.87,0,0,1-.46-1.11,1,1,0,0,1,.75.52,16.12,16.12,0,0,0,1.64,1.73c.11.13.26.23.36.36a5.1,5.1,0,0,0,1.65,1s.1-.06.22-.13a3.39,3.39,0,0,0-.66-.78,6.78,6.78,0,0,1-1.8-2.16c-.59-.85-1.2-1.68-1.8-2.53a8.59,8.59,0,0,1-.44-.77c0-.06,0-.14-.07-.18a10.59,10.59,0,0,1-1.51-2.54A4,4,0,0,1,21,51.09a6,6,0,0,0-.37-1.29,1.3,1.3,0,0,1,0-.34,2.14,2.14,0,0,1,.41.37c.22.37.37.77.61,1.12.59.87,1.22,1.71,1.84,2.58.07-.08.12-.12.11-.14-.33-.64-.47-1.36-.78-2a5.56,5.56,0,0,1-.69-2.06,1.89,1.89,0,0,0-.15-.49,13.1,13.1,0,0,1-.72-2.72.78.78,0,0,0,0-.19A9,9,0,0,1,21,42.84,1.1,1.1,0,0,1,21.12,42.52Z"/>
      <path class="f" d="M38.84,81l-2-1.69a2.11,2.11,0,0,0-.29-.25c-.68-.38-1.35-.76-2-1.11a8.7,8.7,0,0,0-1-.32c-.18-.06-.34-.19-.52-.24-.67-.2-1.35-.41-2-.55s-1.52-.23-2.28-.35c-.59-.1-1.18-.2-1.76-.35q-1.4-.35-2.79-.77a15.48,15.48,0,0,1-1.57-.58c-.81-.34-1.6-.71-2.4-1.07A22.94,22.94,0,0,1,17.32,72a10.75,10.75,0,0,1-1.74-1.42,10.68,10.68,0,0,1-1.42-1.48c-.14-.21-.41-.32-.56-.52C13,67.78,12.49,67,12,66.23c-.11-.16-.16-.35-.28-.51a23.33,23.33,0,0,1-1.58-2.94,8,8,0,0,1-.43-1.14l-.77-2a1.15,1.15,0,0,1-.05-.19c-.11-.55-.2-1.1-.32-1.64S8.21,56.52,8,55.88c0-.15-.06-.29-.09-.44-.06-.36-.14-.72-.18-1.08-.06-.56-.09-1.11-.15-1.67s-.12-1.19-.19-1.79a.42.42,0,0,1,.2-.49,3.73,3.73,0,0,1,.44.43c.55.74,1.12,1.46,1.72,2.17.36.42.73.83,1.09,1.26a4,4,0,0,1,.62,1.19A33.67,33.67,0,0,0,13,59.72c.14.27.29.53.45.78.38.63.74,1.27,1.14,1.88s.91,1.25,1.38,1.88c.13.17.29.33.4.51a30.18,30.18,0,0,0,2.2,2.62c.74.93,1.8,1.48,2.6,2.32a3.49,3.49,0,0,0,.66.4c.2.13.38.29.57.42a.77.77,0,0,0,.39.18,1,1,0,0,1,.76.31,5.36,5.36,0,0,0,2.39,1.19c.54.12,1.05.38,1.59.52.78.22,1.59.37,2.37.59.57.17,1.12.43,1.68.63A12.81,12.81,0,0,1,34,75.15a6.6,6.6,0,0,1,1.75,1.16c.68.2,1.06.79,1.56,1.22a1.42,1.42,0,0,1,.39.49c.38.89.74,1.79,1.1,2.69A1.27,1.27,0,0,1,38.84,81Z"/>
      <path class="f" d="M71,77.61c-.34.64-.62,1.24-1,1.81Q69,81.22,67.74,82.93c-.46.62-1,1.2-1.46,1.8s-1,1.2-1.46,1.79c-.37.42-.76.82-1.16,1.22a27,27,0,0,1-6.36,5.1,8.85,8.85,0,0,1-2.59.91,10.76,10.76,0,0,0-2.6.71,7.33,7.33,0,0,0-1.62.75l-1.54,1.21a1.11,1.11,0,0,1,0-.39,5,5,0,0,0,.21-1.2.62.62,0,0,1,.27-.4c.49-.35,1-.66,1.5-1a3.53,3.53,0,0,0,.44-.37c.06-.06.08-.16.15-.21A9.11,9.11,0,0,0,53,91.12a3.67,3.67,0,0,0,.41-.57c.22-.38.4-.8.65-1.17.47-.7.66-1.53,1.07-2.26A13,13,0,0,0,56,84.78,5,5,0,0,1,58.07,82c.33-.2.6-.49.93-.69a6.72,6.72,0,0,1,.87-.38l.23-.1c.68-.31,1.35-.66,2-.93a11.32,11.32,0,0,1,1.49-.38c1.12-.26,2.25-.49,3.36-.78s2.16-.81,3.26-1.16C70.52,77.49,70.78,77.36,71,77.61Z"/>
      <path class="f" d="M43.77,95.43a10.35,10.35,0,0,0-2.91-1.36,5.69,5.69,0,0,0-1.57-.32,6.26,6.26,0,0,1-2.71-.94c-.93-.59-1.88-1.14-2.76-1.78a22.24,22.24,0,0,1-1.73-1.54c-.19-.17-.39-.33-.58-.49s-.27-.17-.33-.29a2.7,2.7,0,0,0-.83-.89,3,3,0,0,1-.34-.38c-.2-.22-.42-.42-.62-.64s-.41-.48-.62-.72c-.59-.68-1.21-1.34-1.76-2s-1.07-1.5-1.6-2.26c-.19-.26-.4-.51-.56-.78-.54-.9-1.07-1.8-1.6-2.71a1.85,1.85,0,0,1-.19-.33,2.77,2.77,0,0,1-.07-.45,3.51,3.51,0,0,1,1.52.41,10.36,10.36,0,0,0,2.36.8,3.81,3.81,0,0,1,.86.26c.85.3,1.76.34,2.62.57a16.2,16.2,0,0,1,3.43,1.23A12.61,12.61,0,0,1,35.93,82a5.07,5.07,0,0,1,.82.71,5.58,5.58,0,0,1,1.31,2.62,5.67,5.67,0,0,0,.47,1.19,15.45,15.45,0,0,0,.64,1.53c.53,1,1.11,1.94,1.68,2.9.17.29.39.57.59.84a3.51,3.51,0,0,0,.29.33c.27.28.53.57.8.84a2,2,0,0,0,.49.4,1.17,1.17,0,0,1,.76,1.34A5.09,5.09,0,0,0,43.77,95.43Z"/>
      <path class="f" d="M55.71,80.38a3.57,3.57,0,0,1,.71-2.28,5.86,5.86,0,0,0,.44-.72,2,2,0,0,1,.42-.55c.67-.5,1.35-1,2.07-1.43a16.67,16.67,0,0,1,2.28-1.18l2.2-.88a4.63,4.63,0,0,1,.88-.16,19.75,19.75,0,0,0,3.13-.94c.06,0,.11-.07.17-.09a11.3,11.3,0,0,0,2.39-1.07,18.24,18.24,0,0,0,2.18-1.32,12.08,12.08,0,0,0,1.87-1.48,19.11,19.11,0,0,0,3.08-3.39,20.78,20.78,0,0,1,2.8-3.12,31.84,31.84,0,0,0,3.85-4.45c.23-.34.48-.66.73-1a4.64,4.64,0,0,0,.86-1.85,1.78,1.78,0,0,1,.31-.64A3.94,3.94,0,0,1,86,55.27a1.57,1.57,0,0,0-.13.43,21.34,21.34,0,0,1-.7,3c-.12.52-.25,1-.42,1.54S84.3,61.4,84.1,62c-.28.86-.76,1.62-1.11,2.44s-1.07,1.7-1.52,2.6a3.46,3.46,0,0,1-.4.51l-.58.76c-.11.14-.2.28-.32.41a5.76,5.76,0,0,1-1,1c-.63.42-1,1.13-1.7,1.46-.24.11-.38.39-.61.55-.51.36-1,.7-1.56,1-.18.12-.35.25-.54.35s-.38.18-.56.27a2.2,2.2,0,0,0-.35.17,8.16,8.16,0,0,1-2,.93,5.54,5.54,0,0,0-.89.37,10.57,10.57,0,0,1-2.64.81c-.82.23-1.64.49-2.46.71a7,7,0,0,1-.89.1c-.64.08-1.28.14-1.91.27s-1.14.33-1.71.51c-.35.11-.68.26-1,.34a5.71,5.71,0,0,0-1.81.8c-.27.17-.57.3-.85.45a2.11,2.11,0,0,0-.34.19Z"/>
      <path class="f" d="M43,75.47c-.25-.24-.41-.37-.55-.52a4,4,0,0,0-.38-.43,13.11,13.11,0,0,1-1-1,16.35,16.35,0,0,1-1.54-2,11.72,11.72,0,0,1-.66-1,6.27,6.27,0,0,1-.39-.66c-.23-.5-.46-1-.66-1.53s-.42-1.36-.72-2-.24-1.09-.45-1.6a.45.45,0,0,1,0-.31,2.31,2.31,0,0,0,0-1.45.77.77,0,0,1,0-.19A15.42,15.42,0,0,1,37,59.46c.27-1,.63-2,1-3.05a4.42,4.42,0,0,1,.38-.82c.57-1,1.18-1.94,1.74-2.93a4.62,4.62,0,0,1,.76-1.11l.24-.2c0,.15.07.24,0,.29-.23.49-.49,1-.69,1.45s-.26.85-.39,1.28c-.23.75-.46,1.51-.71,2.26a2.78,2.78,0,0,0-.12,1.44,2.64,2.64,0,0,0,.18-.3c.32-.84.62-1.69,1-2.52S41,53.72,41.39,53c.14-.29.34-.55.49-.83a16.88,16.88,0,0,1,1.54-2.3,3.59,3.59,0,0,1,.43-.38c0,.17.09.28.07.36-.23.73-.48,1.46-.72,2.18a11.57,11.57,0,0,0-.63,2.08c-.16,1.31-.72,2.51-.89,3.81a6.21,6.21,0,0,0-.32,2c-.11.59-.17,1.19-.23,1.79S41,62.86,41,63.44c0,.19,0,.45.24.6a1.65,1.65,0,0,0,.41-.94c.13-.67.28-1.34.42-2,0-.19.08-.38.11-.57a2,2,0,0,1,.19-.71c0,.08.12.15.12.23,0,.65.12,1.29.1,1.94,0,1.26-.07,2.52-.16,3.78a16.44,16.44,0,0,1-.31,1.77c0,.08,0,.16,0,.29a.78.78,0,0,0,.75-.39c.21-.35.42-.7.61-1.06a1.87,1.87,0,0,0,.14-.43c.07-.27.13-.54.19-.81,0-.1.1-.22.08-.31-.21-.65.29-1.14.36-1.72,0-.05.08-.09.15-.17a2.4,2.4,0,0,1,.19.33A10,10,0,0,1,45,66c.06.75.14,1.5.2,2.24a.8.8,0,0,1-.05.31,7.74,7.74,0,0,0-.33,2A4.9,4.9,0,0,1,44.49,72C44,73.12,43.53,74.21,43,75.47Z"/>
      <path class="f" d="M15.09,71.77c-.35.27-.57,0-.79-.07-.72-.26-1.43-.52-2.12-.84-.44-.21-.81-.57-1.26-.76A10.47,10.47,0,0,1,9.34,69a9.47,9.47,0,0,1-1.53-1.43,13.87,13.87,0,0,1-2.23-3A13,13,0,0,1,4,61.17a7.79,7.79,0,0,0-.54-1.44A9.88,9.88,0,0,1,3,57.41a13.35,13.35,0,0,1-.29-3c0-.43,0-.87,0-1.29a16.25,16.25,0,0,0-.13-3.94,10.54,10.54,0,0,0-.42-2.07c-.18-.52-.18-1.1-.33-1.63-.22-.8-.51-1.59-.76-2.38,0-.14-.11-.28-.14-.42a7,7,0,0,0-.78-2A.71.71,0,0,1,0,40.47c0-.08,0-.21.05-.23a.57.57,0,0,1,.29,0s.05.06.08.1a10,10,0,0,1,1.75,2.05c.27.51.65,1,.92,1.47a13.82,13.82,0,0,1,1.19,2.48c.33,1.11.86,2.15,1.14,3.27.16.64.26,1.3.42,1.95s.34,1,.42,1.53A7.66,7.66,0,0,1,6.64,55a3.32,3.32,0,0,0,.11.89c.16.8.34,1.59.51,2.39.13.61.26,1.21.37,1.82a7.16,7.16,0,0,1,.15,1.21,7.41,7.41,0,0,0,.36,1.69,14.76,14.76,0,0,0,.56,1.63c.16.44.33.87.51,1.3a3,3,0,0,0,.24.44c.09.15.21.28.29.42a13,13,0,0,0,3.75,4,.69.69,0,0,0,.27.17C14.31,71,14.63,71.45,15.09,71.77Z"/>
      <path class="f" d="M78.87,71.86a1.91,1.91,0,0,1,1-.81A6.45,6.45,0,0,0,81.46,70a13.7,13.7,0,0,0,2.8-3.27A17.76,17.76,0,0,0,85.46,64a13.46,13.46,0,0,0,.48-1.4.33.33,0,0,0,0-.12,13.68,13.68,0,0,1,.27-2.36,1.44,1.44,0,0,1,0-.19c.27-1.23.55-2.46.8-3.7.12-.57.14-1.15.27-1.71.26-1.1.67-2.18.82-3.29a22.49,22.49,0,0,1,1-3.45,19.43,19.43,0,0,1,1.27-3.07c.36-.71.8-1.36,1.15-2.06s1-1.15,1.38-1.83a1.36,1.36,0,0,1,1-.66,1.73,1.73,0,0,1-.05.39c-.26.63-.55,1.25-.8,1.89-.15.39-.22.82-.37,1.22a19.11,19.11,0,0,0-.95,3.26c-.16.91-.26,1.83-.44,2.73A12.63,12.63,0,0,0,91.18,52c0,.66.15,1.33.12,2A16,16,0,0,1,91,57.3c-.18.7-.25,1.43-.41,2.14a9.87,9.87,0,0,1-.4,1.2c-.24.65-.46,1.3-.73,1.93-.2.45-.47.87-.71,1.3a12.18,12.18,0,0,1-.6,1.13,18.32,18.32,0,0,1-3.59,4c-.22.18-.43.36-.64.55a1.75,1.75,0,0,1-.24.22c-.67.39-1.32.81-2,1.14s-1.58.63-2.38.93A1.48,1.48,0,0,1,78.87,71.86Z"/>
      <path class="f" d="M7.63,71.42A1.21,1.21,0,0,1,8,71.36c.68.2,1.34.46,2,.61a14.82,14.82,0,0,1,3,1.35,12.34,12.34,0,0,1,2.56,1.49,16,16,0,0,0,1.57,1c.42.27.82.55,1.23.83a.9.9,0,0,1,.11.06c.49.45,1,.88,1.45,1.35s.85,1,1.29,1.44,1.09,1.09,1.62,1.65,1,1,1.45,1.55L26,84.36c.38.4.78.79,1.15,1.2.07.08.05.23.07.35a1.13,1.13,0,0,1-.34.05c-.68-.11-1.35-.28-2-.33a10.77,10.77,0,0,1-2.65-.72c-.3-.1-.6-.23-.9-.32a22.71,22.71,0,0,1-2.45-1.14,18.34,18.34,0,0,1-2.61-1.63,7.55,7.55,0,0,1-1.9-1.64c-.23-.3-.61-.5-.83-.8a16,16,0,0,1-1.57-2.44,8.33,8.33,0,0,0-1-1.47c-.62-.79-1.19-1.61-1.9-2.34a14,14,0,0,0-1.24-1.26C7.68,71.79,7.68,71.6,7.63,71.42Z"/>
      <path class="f" d="M86.33,71.46A2.83,2.83,0,0,1,86,72a20.84,20.84,0,0,0-2.77,3.21,23.25,23.25,0,0,0-1.74,2.6,6.56,6.56,0,0,1-1.82,2.3,2.07,2.07,0,0,0-.3.34,4,4,0,0,1-.44.47,34.3,34.3,0,0,1-3.17,2.19,15.57,15.57,0,0,1-1.41.72s-.09,0-.12,0A13.6,13.6,0,0,1,71.51,85a7.34,7.34,0,0,1-2.09.59l-2.29.34c-.24,0-.44,0-.45-.23.7-.73,1.37-1.43,2-2.13S70.09,82,70.8,81.29c.43-.45.87-.89,1.32-1.32a3.2,3.2,0,0,0,.74-.88,1.47,1.47,0,0,1,.31-.32c.22-.23.44-.47.68-.69s.42-.35.64-.53a1.54,1.54,0,0,0,.21-.16,11.33,11.33,0,0,1,2.21-1.67,22.51,22.51,0,0,1,3-1.88c1.06-.52,2.09-1.08,3.14-1.6a4.64,4.64,0,0,1,.67-.19c.71-.23,1.41-.47,2.13-.68C85.93,71.34,86.08,71.41,86.33,71.46Z"/>
      <path class="f" d="M12.07,37.17a3.05,3.05,0,0,1-1-1.25c-.38-.66-.57-1.43-.93-2.1a3.06,3.06,0,0,1-.32-1.49c0-1.32,0-2.64.06-4a8.33,8.33,0,0,1,.2-1.07,14.47,14.47,0,0,1,.64-2.74,11.31,11.31,0,0,0,.32-1.37,2.22,2.22,0,0,1,.13-.29,20,20,0,0,0,1-2.9,6.65,6.65,0,0,1,.44-1c.22-.51.41-1,.63-1.55a14.22,14.22,0,0,1,.6-1.36,7.2,7.2,0,0,0,.56-1.28,9.07,9.07,0,0,1,.69-1.38s.07-.06.08-.1c.28-1.16,1-2.15,1.19-3.35a3.12,3.12,0,0,0,0-.82,11.24,11.24,0,0,0-.91-2.8c-.14-.33-.29-.66-.41-1a.94.94,0,0,1,0-.35c.08,0,.14-.06.16,0a3.67,3.67,0,0,1,1.37,1.48c.19.48.52.9.67,1.38a4.93,4.93,0,0,1,.42,1.8c0,.55.08,1.12.07,1.68a18.92,18.92,0,0,1-.11,2.39,16.58,16.58,0,0,1-.56,2.5,3,3,0,0,1-.66,1.1c-.49.54-1.06,1-1.58,1.53-.28.29-.52.62-.78.93,0,0,0,.08-.06.11a10,10,0,0,0-1.34,2.82,9.82,9.82,0,0,0-.37,1.68,6.44,6.44,0,0,1-.15.82c-.19.55-.43,1.08-.62,1.63a3,3,0,0,0-.13.76,15.9,15.9,0,0,1-.13,2,6,6,0,0,0-.13,1.53c0,.51.12,1,.2,1.53,0,.3.09.59.15.88.18.94.36,1.89.56,2.83a1.92,1.92,0,0,0,.2.47C12.38,37,12.25,37.09,12.07,37.17Z"/>
      <path class="f" d="M90,20a4.31,4.31,0,0,0-1.81,2.12,16.45,16.45,0,0,0-.93,2.66.35.35,0,0,0,0,.12A3.49,3.49,0,0,1,87,26.4a9.16,9.16,0,0,0-.26,1.18,19.78,19.78,0,0,1-.39,2.07c-.26.85-.18,1.74-.44,2.6-.35,1.17-.56,2.38-.82,3.58-.05.23,0,.47-.09.7a15.8,15.8,0,0,1-.79,2.69c-.24.64-.4,1.32-.7,1.93a18.4,18.4,0,0,1-1.51,3,15.21,15.21,0,0,0-.82,1.46,4,4,0,0,1-.05-.44c0-.78,0-1.56.07-2.33a4.35,4.35,0,0,1,.35-1.22c.3-.73.71-1.42.94-2.17.19-.59.41-1.16.63-1.74.1-.28.2-.56.28-.84.28-1,.62-2,.81-3a5.62,5.62,0,0,0,.28-2.42,11.65,11.65,0,0,0-.57,1.76,6,6,0,0,1-.53,1.44,20.29,20.29,0,0,1-1,1.88,6.41,6.41,0,0,1-.56.73.6.6,0,0,1-.14-.71,12.64,12.64,0,0,0,.54-2.25,23.25,23.25,0,0,0,.52-3.09,6.65,6.65,0,0,1,1-2.85c.53-.91.8-1.92,1.27-2.85a22.82,22.82,0,0,1,1.73-3.15,8.5,8.5,0,0,1,1.4-1.67,11,11,0,0,1,1.16-.81C89.59,19.7,89.82,19.77,90,20Z"/>
      <path class="f" d="M4,20.06c.17-.35.38-.29.65-.18a4.73,4.73,0,0,1,1.9,1.61c.33.42.65.86.94,1.31s.44.83.69,1.23a23.12,23.12,0,0,1,1.25,2.74.76.76,0,0,1,.06.31c0,.93,0,1.86,0,2.79s-.06,2-.09,3a.65.65,0,0,0,.06.37A4,4,0,0,1,10,35a14.43,14.43,0,0,0,.49,1.78A23,23,0,0,1,11.21,39a4.29,4.29,0,0,0,.55,1.3,6.28,6.28,0,0,1,.81,2.46c.11.83.11,1.67.17,2.66-.24-.26-.44-.38-.49-.54A11.72,11.72,0,0,0,11.2,43c-.12-.23-.17-.48-.27-.72A12.34,12.34,0,0,0,10.37,41a7.59,7.59,0,0,1-.73-2.18,3.47,3.47,0,0,0-.14-.36,13.5,13.5,0,0,1-.71-2.73c-.08-.68-.33-1.33-.41-2s-.3-1.28-.43-1.93-.25-1.48-.36-2.21c-.05-.32-.09-.64-.16-1-.15-.69-.32-1.37-.48-2.06A12,12,0,0,1,6.6,25a9.19,9.19,0,0,0-1-3.1,4,4,0,0,0-1.37-1.67A2.87,2.87,0,0,1,4,20.06Z"/>
      <path class="f" d="M90.59,36.25a1.75,1.75,0,0,1,0,.48,14,14,0,0,0-1.09,2.93c-.19.74-.62,1.41-.85,2.14-.35,1.11-1,2.08-1.42,3.15a10.72,10.72,0,0,1-.78,1.33c-.11.18-.2.38-.29.57a1.66,1.66,0,0,1-.1.24l-1.7,2.35c-.15.21-.28.43-.43.64s-.35.43-.54.64-.18.13-.25.21l-1.5,1.75c-.11.13-.26.23-.38.35l-.78.75c-.11.1-.2.21-.31.31s-.44.34-.65.54-.5.6-.91.68a.33.33,0,0,0-.15.12,16.28,16.28,0,0,1-2.58,1.94,20.21,20.21,0,0,1-2.3,1.33c.15-.23.23-.35.31-.47a3.66,3.66,0,0,1,.32-.41l2.91-3,1-1c1.09-1.1,2.23-2.16,3.25-3.33a10.08,10.08,0,0,0,1.47-1.7c.13-.23.42-.37.58-.6.58-.78,1.13-1.57,1.69-2.36a10.16,10.16,0,0,0,.57-.85c.19-.33.34-.68.5-1a15.73,15.73,0,0,0,1-2.17,17.6,17.6,0,0,1,.85-2.2c.23-.53.48-1.06.76-1.57a2.35,2.35,0,0,1,.5-.59C89.61,37.07,90,36.71,90.59,36.25Z"/>
      <path class="f" d="M19.73,58.24a2,2,0,0,1-.24-.09,28,28,0,0,1-4.2-2.85c-.55-.47-1.13-.9-1.66-1.39s-1-1-1.54-1.54c-.17-.17-.34-.33-.49-.51s-.37-.47-.56-.69-.32-.34-.47-.51-.44-.56-.66-.85c-.09-.12-.16-.26-.26-.37a5.65,5.65,0,0,1-1.15-1.7C7.67,47,7.42,45.85,6.75,45a7.66,7.66,0,0,1-.5-1.11,17.15,17.15,0,0,1-1.09-2.52c-.21-.61-.46-1.2-.67-1.8-.13-.36-.22-.73-.36-1.08-.3-.76-.62-1.5-.92-2.26,0-.09-.05-.19-.1-.35A10.42,10.42,0,0,1,5.3,38a5.59,5.59,0,0,1,.41.93c.24.53.49,1,.72,1.57.1.23.12.49.21.73A8.4,8.4,0,0,0,7,42.36a12.63,12.63,0,0,1,.76,1.76,2.17,2.17,0,0,0,.25.45,40.07,40.07,0,0,0,2.4,3.5c.42.54,1,1,1.39,1.51a18.87,18.87,0,0,0,1.42,1.56c.26.25.51.52.76.78a16.92,16.92,0,0,1,2.14,2.29,3.24,3.24,0,0,0,.44.48c.76.79,1.54,1.57,2.29,2.37A12.1,12.1,0,0,1,19.73,58.24Z"/>
      <path class="f" d="M41.11,34.69A6.47,6.47,0,0,1,42.27,36c.34.39.51.92,1,1.17-.11-.19-.21-.39-.32-.57a12.27,12.27,0,0,0-1.79-2.35.64.64,0,0,0-.41-.15,3.31,3.31,0,0,0-1.58.2,1.84,1.84,0,0,1-.69.14.38.38,0,0,1-.31-.16.36.36,0,0,1,.12-.32,3.48,3.48,0,0,1,.8-.52,14.87,14.87,0,0,1,1.83-.6,1.36,1.36,0,0,1,1.12.17,6,6,0,0,1,1.25.9,7.32,7.32,0,0,1,1.49,2.46,14.87,14.87,0,0,0,.72,1.57A4.89,4.89,0,0,1,46,39.08a6.18,6.18,0,0,0,.49,1.1c.23.59.43,1.19.67,1.78.14.36.31.7.46,1.06A.68.68,0,0,1,47,44a1.21,1.21,0,0,1-1.29-.52l0,0a7.43,7.43,0,0,1-1.62-1.81c-.29-.34-.48-.76-.75-1.12a23.67,23.67,0,0,1-1.9-3.37,5.41,5.41,0,0,1-.33-1.29A5,5,0,0,1,41,35C41,34.93,41,34.82,41.11,34.69Z"/>
      <path class="f" d="M71.86,31.74a2.69,2.69,0,0,1-.38-1.92c0-.17.07-.34.08-.5.06-.62.1-1.24.16-1.87,0-.36.08-.72.1-1.09,0-.54.07-1.08.09-1.61a3.34,3.34,0,0,0,0-.39,9.46,9.46,0,0,1-.07-1,18,18,0,0,0-.23-2.7,12.89,12.89,0,0,0-.3-2.1c-.23-.84-.48-1.68-.72-2.52a8.31,8.31,0,0,0-.24-.85c-.2-.5-.43-1-.67-1.47s-.56-1.06-.82-1.59c0-.08,0-.2,0-.36a12.89,12.89,0,0,1,3.51,4.72,6.52,6.52,0,0,1,.43,2.26,13.88,13.88,0,0,0,.18,1.4c0,.3.08.6.11.89.06.7.13,1.41.17,2.12s.08,1.55.1,2.33c0,.61,0,1.21,0,1.82-.05,1.14-.13,2.28-.21,3.42A.45.45,0,0,1,73,31C72.69,31.26,72.43,31.67,71.86,31.74Z"/>
      <path class="f" d="M21.56,31.5c-.47-.22-.81-.47-.82-1,0-1.72-.09-3.44-.09-5.16a35.71,35.71,0,0,1,.16-3.62A21.32,21.32,0,0,0,21,19a2,2,0,0,1,.11-.5,3.59,3.59,0,0,0,.16-.69,3.77,3.77,0,0,1,1.11-2.48,16.86,16.86,0,0,1,1.86-1.7,2,2,0,0,1-.09.21,14.62,14.62,0,0,0-1.07,2.87c-.2.63-.4,1.27-.56,1.91A9.3,9.3,0,0,0,22.34,20q-.11,1.09-.17,2.18c0,.88-.11,1.77-.1,2.65,0,1.23.08,2.46.15,3.68a13.52,13.52,0,0,0,.23,1.65.72.72,0,0,1-.24.75C22,31.08,21.78,31.29,21.56,31.5Z"/>
      <path class="f" d="M44,42.82a.46.46,0,0,1,.65.15,2.42,2.42,0,0,0,.29.35A.48.48,0,0,1,45,44a1.26,1.26,0,0,0-.16.54,3.9,3.9,0,0,1-.51,1.71,11.93,11.93,0,0,1-.71,1.3c-.23.35-.58.63-.81,1-.42.66-1.14,1-1.47,1.77a.67.67,0,0,1-.15.21,15.52,15.52,0,0,0-1.79,2.36c-.39.53-.73,1.1-1.07,1.66-.1.17-.2.29-.41.23a.33.33,0,0,1-.25-.4,6.34,6.34,0,0,1,.26-1.19A8.38,8.38,0,0,1,38.55,52a8.42,8.42,0,0,1,.57-.93c.48-.62,1-1.24,1.49-1.83a21.74,21.74,0,0,0,1.72-1.93A7.55,7.55,0,0,0,43.52,45c.15-.62.26-1.25.39-1.88C43.93,43,44,42.9,44,42.82Z"/>
    </g>
  </g>
</svg>
