<svg xmlns="http://www.w3.org/2000/svg" viewBox="0 0 188.27 90.93">
  <defs>
    <style>
      .a {
        fill: #004481;
      }

      .b {
        fill: none;
      }
    </style>
  </defs>
  <title>RV_ClassB</title>
  <g>
    <g>
      <path class="a" d="M145.47,75.63a7.65,7.65,0,1,1-7.65,7.65A7.65,7.65,0,0,1,145.47,75.63ZM141,83.28a4.5,4.5,0,1,0,4.5-4.5A4.5,4.5,0,0,0,141,83.28Zm4-3.43h1c.17,0,.32.2.32.45s-.14.45-.32.45h-1c-.17,0-.32-.2-.32-.45S144.82,79.84,145,79.84Zm3.21,1.3.48.83c.09.15,0,.38-.23.5a.4.4,0,0,1-.55,0l-.48-.83c-.09-.15,0-.38.23-.5A.4.4,0,0,1,148.21,81.14Zm.48,3.43-.48.83a.4.4,0,0,1-.55,0c-.22-.13-.32-.35-.23-.5l.48-.83a.4.4,0,0,1,.55,0C148.67,84.2,148.78,84.43,148.69,84.58ZM146,86.71h-1c-.17,0-.32-.2-.32-.45s.14-.45.32-.45h1c.17,0,.32.2.32.45S146.13,86.71,146,86.71Zm-3.21-1.3-.48-.83c-.09-.15,0-.38.23-.5a.4.4,0,0,1,.55,0l.48.83c.09.15,0,.38-.23.5A.4.4,0,0,1,142.74,85.41ZM142.26,82l.48-.83a.4.4,0,0,1,.55,0c.22.13.32.35.23.5l-.48.83a.4.4,0,0,1-.55,0C142.28,82.35,142.17,82.12,142.26,82Zm3.21-.29a1.6,1.6,0,1,1-1.6,1.6A1.6,1.6,0,0,1,145.47,81.68Z"/>
      <path class="a" d="M61.71,75.63a7.65,7.65,0,1,1-7.65,7.65A7.65,7.65,0,0,1,61.71,75.63Zm-4.5,7.65a4.5,4.5,0,1,0,4.5-4.5A4.5,4.5,0,0,0,57.21,83.28Zm4-3.43h1c.17,0,.32.2.32.45s-.14.45-.32.45h-1c-.17,0-.32-.2-.32-.45S61.05,79.84,61.23,79.84Zm3.21,1.3.48.83c.09.15,0,.38-.23.5a.4.4,0,0,1-.55,0l-.48-.83c-.09-.15,0-.38.23-.5A.4.4,0,0,1,64.44,81.14Zm.48,3.43-.48.83a.4.4,0,0,1-.55,0c-.22-.13-.32-.35-.23-.5l.48-.83a.4.4,0,0,1,.55,0C64.9,84.2,65,84.43,64.92,84.58Zm-2.74,2.13h-1c-.17,0-.32-.2-.32-.45s.14-.45.32-.45h1c.17,0,.32.2.32.45S62.36,86.71,62.18,86.71ZM59,85.41l-.48-.83c-.09-.15,0-.38.23-.5a.4.4,0,0,1,.55,0l.48.83c.09.15,0,.38-.23.5A.4.4,0,0,1,59,85.41ZM58.49,82l.48-.83a.4.4,0,0,1,.55,0c.22.13.32.35.23.5l-.48.83a.4.4,0,0,1-.55,0C58.51,82.35,58.41,82.12,58.49,82Zm3.21-.29a1.6,1.6,0,1,1-1.6,1.6A1.6,1.6,0,0,1,61.71,81.68Z"/>
      <path class="a" d="M159.33,77.94h-6.91a8.72,8.72,0,0,1,1.82,5.33c0,.34.05,1,.23,1h3.38c.28,0,2.18-5,2.18-5C160.31,78.55,160.14,77.94,159.33,77.94Z"/>
      <path class="a" d="M159.73,77.65a24.33,24.33,0,0,0-.58-5.71c-.69-1.67-12.85-7.47-12.85-7.47s-6.35-8.76-8.64-10.32c-1.07-.73-6.55-2.38-14.9-2.38v32.5h13.76c.21,0,.19-.66.19-1a8.76,8.76,0,0,1,15.45-5.68h7.18A1.55,1.55,0,0,1,159.73,77.65Zm-15-12.76a.59.59,0,0,1-.59.29l-16.38-2.23a2.83,2.83,0,0,1-2.4-2.27L124,53.32a.35.35,0,0,1,.35-.42c7.46.19,12,1.72,12.66,2.17,1.6,1.09,5.69,6.45,7.7,9.15A.59.59,0,0,1,144.76,64.88Zm12.27,10c-.19-.19-1.87-2.59-1.08-2.59h3a19.32,19.32,0,0,1,.39,3.33A16,16,0,0,1,157,74.88Z"/>
      <path class="a" d="M28.12,73.35a.52.52,0,0,1,.52-.55h1.21V84.27H29.3a.52.52,0,0,1-.52-.49Z"/>
      <path class="a" d="M65.88,31.69a1.38,1.38,0,0,0-1.24-.77H52.28a1.38,1.38,0,0,0-1.24.77l-.5,1H66.38Z"/>
      <path class="a" d="M118,31.71a1.35,1.35,0,0,0-1.21-.75h-12.1a1.35,1.35,0,0,0-1.21.75l-.49,1h15.5Z"/>
      <rect class="a" x="72.47" y="73.14" width="23.1" height="11.13"/>
      <polygon class="a" points="113.75 83.28 98.14 83.28 98.14 73.14 96.47 73.14 96.47 84.27 121.61 84.27 121.61 73.14 113.75 73.14 113.75 83.28"/>
      <rect class="a" x="29.84" y="73.14" width="3.03" height="11.13"/>
      <path class="a" d="M32.87,33.83H30.75a.91.91,0,0,0-.91.91V72.24h3Z"/>
      <path class="a" d="M33.78,73.14V84.27H52.67c.22,0,.26-.66.26-1a8.77,8.77,0,1,1,17.54,0c0,.34,0,1,.33,1h.75V73.14Z"/>
      <rect class="a" x="99.04" y="73.14" width="13.8" height="9.23"/>
      <path class="a" d="M57.23,72.24h40.9V47.82a2.35,2.35,0,0,1,2.35-2.35h10.92a2.35,2.35,0,0,1,2.35,2.35V72.24h1.76V40.37H57.23Zm3.51-21.06a1.93,1.93,0,0,1,1.93-1.93H83.48a1.93,1.93,0,0,1,1.93,1.93V61.89a1.93,1.93,0,0,1-1.93,1.93H62.67a1.93,1.93,0,0,1-1.93-1.93Z"/>
      <path class="a" d="M111.41,46.38H100.48A1.44,1.44,0,0,0,99,47.82V72.24h13.8V47.82A1.44,1.44,0,0,0,111.41,46.38Zm-.7,15.51a1.93,1.93,0,0,1-1.93,1.93h-5.67a1.93,1.93,0,0,1-1.93-1.93V51.17a1.93,1.93,0,0,1,1.93-1.93h5.67a1.93,1.93,0,0,1,1.93,1.93Z"/>
      <path class="a" d="M121,33.83H33.78v38.4H56V37h60.69V72.24h4.89V50.41h18.45c3.64,0,6.44-.61,6.44-1.87V43.36C146.5,40.09,136.74,33.83,121,33.83ZM138.42,45.5a1.93,1.93,0,0,1-1.93,1.93H125.93A1.93,1.93,0,0,1,124,45.5V40.38a1.93,1.93,0,0,1,1.93-1.93h10.56a1.93,1.93,0,0,1,1.93,1.93Z"/>
    </g>
    <rect class="b" width="188.27" height="90.93"/>
  </g>
</svg>
