<svg xmlns="http://www.w3.org/2000/svg" viewBox="0 0 188.27 90.93">
  <defs>
    <style>
      .a {
        fill: #004481;
      }

      .b {
        fill: none;
      }
    </style>
  </defs>
  <title>RV_ClassA</title>
  <g>
    <g>
      <path class="a" d="M142.13,75.13a7.9,7.9,0,1,1-7.9,7.9A7.9,7.9,0,0,1,142.13,75.13ZM137.48,83a4.65,4.65,0,1,0,4.65-4.65A4.65,4.65,0,0,0,137.48,83Zm4.15-3.55h1c.18,0,.33.21.33.47s-.15.47-.33.47h-1c-.18,0-.33-.21-.33-.47S141.45,79.48,141.63,79.48Zm3.32,1.35.49.86c.09.16,0,.39-.24.52s-.48.11-.57,0l-.49-.86c-.09-.16,0-.39.24-.52A.42.42,0,0,1,144.95,80.83Zm.49,3.55-.49.86a.42.42,0,0,1-.57,0c-.22-.13-.33-.36-.24-.52l.49-.86c.09-.16.35-.18.57,0S145.53,84.22,145.44,84.37Zm-2.82,2.2h-1c-.18,0-.33-.21-.33-.47s.15-.47.33-.47h1c.18,0,.33.21.33.47S142.8,86.57,142.62,86.57Zm-3.32-1.35-.49-.86c-.09-.16,0-.39.24-.52a.42.42,0,0,1,.57,0l.49.86c.09.16,0,.39-.24.52A.42.42,0,0,1,139.3,85.23Zm-.49-3.55.49-.86a.42.42,0,0,1,.57,0c.22.13.33.36.24.52l-.49.86a.42.42,0,0,1-.57,0C138.82,82.07,138.72,81.84,138.81,81.68Zm3.32-.3A1.65,1.65,0,1,1,140.48,83,1.65,1.65,0,0,1,142.13,81.38Z"/>
      <path class="a" d="M70.16,75.13a7.9,7.9,0,1,1-7.9,7.9A7.9,7.9,0,0,1,70.16,75.13ZM66.33,79.2a5.42,5.42,0,1,0,7.66,0A5.42,5.42,0,0,0,66.33,79.2Zm7.81,2.53c-.39.16-.77.16-.85,0a4.38,4.38,0,0,0-1.84-1.84c-.16-.08-.16-.46,0-.85s.49-.63.71-.52A5.92,5.92,0,0,1,74.66,81C74.77,81.24,74.53,81.56,74.14,81.72Zm-6,5.8A5.92,5.92,0,0,1,65.66,85c-.12-.22.12-.55.52-.71s.77-.16.85,0a4.38,4.38,0,0,0,1.84,1.84c.16.08.16.46,0,.85S68.37,87.64,68.14,87.52ZM71.46,87c-.16-.39-.16-.77,0-.85a4.38,4.38,0,0,0,1.84-1.84c.08-.16.46-.16.85,0s.63.49.52.71a5.92,5.92,0,0,1-2.48,2.48C71.95,87.64,71.62,87.4,71.46,87Zm-5.8-6a5.92,5.92,0,0,1,2.48-2.48c.22-.12.55.12.71.52s.16.77,0,.85A4.38,4.38,0,0,0,67,81.73c-.08.16-.46.16-.85,0S65.54,81.24,65.66,81Zm4.5-.07A2.08,2.08,0,1,1,68.07,83,2.08,2.08,0,0,1,70.16,80.94Z"/>
      <path class="a" d="M159.67,79.33a.51.51,0,0,1-.63-.5V72.11a.51.51,0,0,1,.51-.51h3.08a.51.51,0,0,1,.51.56l-.48,5.78a1,1,0,0,1-.75.87Z"/>
      <path class="a" d="M28.6,79.33a.51.51,0,0,0,.63-.5V72.11a.51.51,0,0,0-.51-.51H25.64a.51.51,0,0,0-.51.56l.48,5.78a1,1,0,0,0,.75.87Z"/>
      <path class="a" d="M57,32a2,2,0,0,0-1.74-1.08H37.84A2,2,0,0,0,36.1,32l-.7,1.41H57.73Z"/>
      <path class="a" d="M106.4,32.34a1.49,1.49,0,0,0-1.34-.83H91.68a1.49,1.49,0,0,0-1.34.83l-.54,1.08h17.13Z"/>
      <path class="a" d="M161.94,62.1l-14.16-27a1.2,1.2,0,0,0-1-.56H29.22A1.2,1.2,0,0,0,28,35.66l-2.9,25.75,2.87,17a1.2,1.2,0,0,0,1,1l30.61,3.3a1,1,0,0,0,1.12-.59l3.19-7.22a1,1,0,0,1,.95-.62H75.49a1,1,0,0,1,.95.62l3.25,7.35a1,1,0,0,0,.93.61h52.16c.45,0,.62-1.1.62-1.1l2.06-6.17s.1-1.14,6.89-1.14C148.88,74.41,149,76,149,76l1.25,3.42a1,1,0,0,0,1.07.68l7.74-.69a1,1,0,0,0,.93-.86l2.38-13.79A4.1,4.1,0,0,0,161.94,62.1Zm-98.77-4H36.52V43.49H63.17Zm28.5-6.75h-21V43.49h21Zm27.81,30.44H104.85V42.51h14.63Zm15.59-23.69h-8.47V43.49h8.47Zm2.39,15.65h-1.33V38H33.87V73.73H32.54v-38H137.46Zm1-15.76a.32.32,0,0,1-.32-.32V43.8a.32.32,0,0,1,.32-.32h7.1a1,1,0,0,1,.92.56L153.76,58ZM158,63.51a.63.63,0,0,1-.63.63h-2.41a.63.63,0,0,1-.63-.63v-.88a.63.63,0,0,1,.63-.63h2.41a.63.63,0,0,1,.63.63Zm-.25-4.92a1.66,1.66,0,0,1-1.48-.91l-6.35-12.41a1.66,1.66,0,0,1,1.48-2.42l8.26,15.74Z"/>
      <path class="a" d="M118.17,43.82h-12V80.45h12Zm-2,11.8H108V45.18h8.18Z"/>
    </g>
    <rect class="b" width="188.27" height="90.93"/>
  </g>
</svg>
