<svg xmlns="http://www.w3.org/2000/svg" viewBox="0 0 188.27 90.93">
  <defs>
    <style>
      .a {
        fill: #004481;
      }

      .b {
        fill: none;
      }
    </style>
  </defs>
  <title>RV_FifthWheel</title>
  <g>
    <g>
      <g>
        <circle class="a" cx="94.39" cy="82.91" r="0.31" transform="translate(-21 33.23) rotate(-18)"/>
        <circle class="a" cx="93.91" cy="84.39" r="0.31" transform="translate(-31.66 71.29) rotate(-35.99)"/>
        <ellipse class="a" cx="95.58" cy="80.89" rx="0.48" ry="0.67" transform="translate(-29.2 91.28) rotate(-45)"/>
        <path class="a" d="M93.14,80.66a2.67,2.67,0,1,0,2.67,2.67A2.67,2.67,0,0,0,93.14,80.66Zm0,4.56A1.89,1.89,0,1,1,95,83.33,1.89,1.89,0,0,1,93.14,85.23Z"/>
        <ellipse class="a" cx="93.14" cy="79.87" rx="0.67" ry="0.48"/>
        <circle class="a" cx="93.14" cy="82" r="0.31"/>
        <circle class="a" cx="92.36" cy="84.39" r="0.31" transform="translate(-30.2 109.5) rotate(-53.99)"/>
        <circle class="a" cx="91.88" cy="82.91" r="0.31" transform="translate(-15.37 144.67) rotate(-71.99)"/>
        <ellipse class="a" cx="95.58" cy="85.78" rx="0.67" ry="0.48" transform="translate(-32.66 92.7) rotate(-44.99)"/>
        <ellipse class="a" cx="96.6" cy="83.33" rx="0.48" ry="0.67"/>
        <ellipse class="a" cx="93.14" cy="86.79" rx="0.67" ry="0.48"/>
        <ellipse class="a" cx="90.69" cy="85.78" rx="0.48" ry="0.67" transform="translate(-34.09 89.25) rotate(-45)"/>
        <ellipse class="a" cx="89.68" cy="83.33" rx="0.48" ry="0.67"/>
        <ellipse class="a" cx="90.69" cy="80.89" rx="0.67" ry="0.48" transform="translate(-30.63 87.82) rotate(-45)"/>
        <path class="a" d="M93.14,75.74a7.59,7.59,0,1,0,7.59,7.59A7.59,7.59,0,0,0,93.14,75.74Zm0,12.43A4.83,4.83,0,1,1,98,83.33,4.83,4.83,0,0,1,93.14,88.16Z"/>
      </g>
      <g>
        <circle class="a" cx="76.29" cy="82.91" r="0.31" transform="translate(-21.89 27.64) rotate(-18)"/>
        <circle class="a" cx="75.81" cy="84.39" r="0.31" transform="translate(-35.12 60.66) rotate(-35.99)"/>
        <ellipse class="a" cx="77.48" cy="80.89" rx="0.48" ry="0.67" transform="translate(-34.5 78.48) rotate(-45)"/>
        <path class="a" d="M75,80.66a2.67,2.67,0,1,0,2.67,2.67A2.67,2.67,0,0,0,75,80.66Zm0,4.56a1.89,1.89,0,1,1,1.89-1.89A1.89,1.89,0,0,1,75,85.23Z"/>
        <ellipse class="a" cx="75.03" cy="79.87" rx="0.67" ry="0.48"/>
        <circle class="a" cx="75.03" cy="82" r="0.31"/>
        <circle class="a" cx="74.26" cy="84.39" r="0.31" transform="translate(-37.66 94.85) rotate(-53.99)"/>
        <circle class="a" cx="73.78" cy="82.91" r="0.31" transform="translate(-27.88 127.45) rotate(-71.99)"/>
        <ellipse class="a" cx="77.48" cy="85.78" rx="0.67" ry="0.48" transform="translate(-37.96 79.9) rotate(-44.99)"/>
        <ellipse class="a" cx="78.49" cy="83.33" rx="0.48" ry="0.67"/>
        <ellipse class="a" cx="75.03" cy="86.79" rx="0.67" ry="0.48"/>
        <ellipse class="a" cx="72.59" cy="85.78" rx="0.48" ry="0.67" transform="translate(-39.39 76.45) rotate(-45)"/>
        <ellipse class="a" cx="71.57" cy="83.33" rx="0.48" ry="0.67"/>
        <ellipse class="a" cx="72.59" cy="80.89" rx="0.67" ry="0.48" transform="translate(-35.93 75.02) rotate(-45)"/>
        <path class="a" d="M75,75.74a7.59,7.59,0,1,0,7.59,7.59A7.59,7.59,0,0,0,75,75.74Zm0,12.43a4.83,4.83,0,1,1,4.83-4.83A4.83,4.83,0,0,1,75,88.16Z"/>
      </g>
      <g>
        <rect class="a" x="133.1" y="81.48" width="1.12" height="8.3"/>
        <polygon class="a" points="136.11 89.78 133.66 89.78 131.28 89.78 130.16 90.27 130.16 90.93 133.66 90.93 137.22 90.93 137.22 90.27 136.11 89.78"/>
      </g>
      <path class="a" d="M118.63,32.79H89.08l.31-.52a2.76,2.76,0,0,1,2.37-1.34h24.18a2.76,2.76,0,0,1,2.37,1.34Z"/>
      <polygon class="a" points="166.39 69.26 156.9 70.37 145.69 70.37 145.69 67.92 166.39 67.92 166.39 69.26"/>
      <path class="a" d="M123.78,44.87H114.4a1.19,1.19,0,0,0-1.19,1.19V68.58H125V46.06A1.19,1.19,0,0,0,123.78,44.87Zm-.68,12.9a1.63,1.63,0,0,1-1.63,1.63H116.7a1.63,1.63,0,0,1-1.63-1.63v-9a1.63,1.63,0,0,1,1.63-1.63h4.77a1.63,1.63,0,0,1,1.63,1.63Z"/>
      <path class="a" d="M43.78,68.58h68.55V46.06A2.07,2.07,0,0,1,114.4,44h9.38a2.07,2.07,0,0,1,2.07,2.07V68.58h3.89V42h-86ZM79.44,48.75a1.63,1.63,0,0,1,1.63-1.63H98.59a1.63,1.63,0,0,1,1.63,1.63V53.3a1.63,1.63,0,0,1-1.63,1.63H81.06a1.63,1.63,0,0,1-1.63-1.63Zm-31.58,0a1.63,1.63,0,0,1,1.63-1.63H67a1.63,1.63,0,0,1,1.63,1.63v9A1.63,1.63,0,0,1,67,59.4H49.49a1.63,1.63,0,0,1-1.63-1.63Z"/>
      <rect class="a" x="113.21" y="69.71" width="11.76" height="5.98"/>
      <path class="a" d="M130.94,78h-1.2V69.71h-3.89v6.86H112.33V69.71H43.78V78h-1.2V69.71H34.81v1.91a1.93,1.93,0,0,1-1.93,1.93H28.55a1.93,1.93,0,0,1-1.93-1.93V69.71H21.89v6.6l15.81,4H66.77a8.74,8.74,0,0,1,16.46,0h1.64a8.74,8.74,0,0,1,16.46,0h33.31l2.59-10.62h-6.3Z"/>
      <path class="a" d="M164.38,55.34c-.65-4.26-10.19-20.65-17.93-21.37V66.59H158S165.25,61,164.38,55.34Z"/>
      <path class="a" d="M75.89,33.93l-54,7.52V68.58h4.74V49.22a1.93,1.93,0,0,1,1.93-1.93h4.33a1.93,1.93,0,0,1,1.93,1.93V68.58h7.77V40.09h88.36V68.58h6.7a3.7,3.7,0,0,1,3.28-2h4.57V33.93Zm63.8,22.17h-4.93a1.93,1.93,0,0,1-1.93-1.93v-5.1a1.93,1.93,0,0,1,1.93-1.93h4.93a1.93,1.93,0,0,1,1.93,1.93v5.1A1.93,1.93,0,0,1,139.69,56.1Z"/>
    </g>
    <rect class="b" width="188.27" height="90.93"/>
  </g>
</svg>
