<svg xmlns="http://www.w3.org/2000/svg" viewBox="0 0 188.27 90.93">
  <defs>
    <style>
      .a {
        fill: #004481;
      }

      .b {
        fill: none;
      }
    </style>
  </defs>
  <title>RV_ToyHauler</title>
  <g>
    <g>
      <g>
        <g>
          <circle class="a" cx="109.47" cy="82.91" r="0.31" transform="matrix(0.95, -0.31, 0.31, 0.95, -20.27, 37.89)"/>
          <circle class="a" cx="108.99" cy="84.39" r="0.31" transform="translate(-28.79 80.15) rotate(-35.99)"/>
          <ellipse class="a" cx="110.66" cy="80.89" rx="0.48" ry="0.67" transform="translate(-24.78 101.94) rotate(-45)"/>
          <path class="a" d="M108.21,80.66a2.67,2.67,0,1,0,2.67,2.67A2.67,2.67,0,0,0,108.21,80.66Zm0,4.56a1.89,1.89,0,1,1,1.89-1.89A1.89,1.89,0,0,1,108.21,85.23Z"/>
          <ellipse class="a" cx="108.21" cy="79.87" rx="0.67" ry="0.48"/>
          <circle class="a" cx="108.21" cy="82" r="0.31"/>
          <circle class="a" cx="107.44" cy="84.39" r="0.31" transform="translate(-23.99 121.69) rotate(-53.99)"/>
          <circle class="a" cx="106.96" cy="82.91" r="0.31" transform="translate(-4.96 159.01) rotate(-71.99)"/>
          <ellipse class="a" cx="110.66" cy="85.78" rx="0.67" ry="0.48" transform="translate(-28.24 103.36) rotate(-44.99)"/>
          <ellipse class="a" cx="111.67" cy="83.33" rx="0.48" ry="0.67"/>
          <ellipse class="a" cx="108.21" cy="86.79" rx="0.67" ry="0.48"/>
          <ellipse class="a" cx="105.77" cy="85.78" rx="0.48" ry="0.67" transform="translate(-29.68 99.91) rotate(-45)"/>
          <ellipse class="a" cx="104.76" cy="83.33" rx="0.48" ry="0.67"/>
          <ellipse class="a" cx="105.77" cy="80.89" rx="0.67" ry="0.48" transform="translate(-26.22 98.48) rotate(-45)"/>
          <path class="a" d="M108.21,75.74a7.59,7.59,0,1,0,7.59,7.59A7.59,7.59,0,0,0,108.21,75.74Zm0,12.43A4.83,4.83,0,1,1,113,83.33,4.83,4.83,0,0,1,108.21,88.16Z"/>
        </g>
        <g>
          <circle class="a" cx="91.37" cy="82.91" r="0.31" transform="translate(-21.15 32.3) rotate(-18)"/>
          <circle class="a" cx="90.89" cy="84.39" r="0.31" transform="translate(-32.24 69.52) rotate(-35.99)"/>
          <ellipse class="a" cx="92.56" cy="80.89" rx="0.48" ry="0.67" transform="translate(-30.09 89.14) rotate(-45)"/>
          <path class="a" d="M90.11,80.66a2.67,2.67,0,1,0,2.67,2.67A2.67,2.67,0,0,0,90.11,80.66Zm0,4.56A1.89,1.89,0,1,1,92,83.33,1.89,1.89,0,0,1,90.11,85.23Z"/>
          <ellipse class="a" cx="90.11" cy="79.87" rx="0.67" ry="0.48"/>
          <circle class="a" cx="90.11" cy="82" r="0.31"/>
          <circle class="a" cx="89.34" cy="84.39" r="0.31" transform="translate(-31.45 107.05) rotate(-53.99)"/>
          <circle class="a" cx="88.86" cy="82.91" r="0.31" transform="translate(-17.46 141.79) rotate(-71.99)"/>
          <ellipse class="a" cx="92.56" cy="85.78" rx="0.67" ry="0.48" transform="translate(-33.55 90.56) rotate(-44.99)"/>
          <ellipse class="a" cx="93.57" cy="83.33" rx="0.48" ry="0.67"/>
          <ellipse class="a" cx="90.11" cy="86.79" rx="0.67" ry="0.48"/>
          <ellipse class="a" cx="87.67" cy="85.78" rx="0.48" ry="0.67" transform="translate(-34.98 87.11) rotate(-45)"/>
          <ellipse class="a" cx="86.65" cy="83.33" rx="0.48" ry="0.67"/>
          <ellipse class="a" cx="87.67" cy="80.89" rx="0.67" ry="0.48" transform="translate(-31.52 85.68) rotate(-45)"/>
          <path class="a" d="M90.11,75.74a7.59,7.59,0,1,0,7.59,7.59A7.59,7.59,0,0,0,90.11,75.74Zm0,12.43a4.83,4.83,0,1,1,4.83-4.83A4.83,4.83,0,0,1,90.11,88.16Z"/>
        </g>
        <g>
          <rect class="a" x="148.18" y="81.48" width="1.12" height="8.3"/>
          <polygon class="a" points="151.18 89.78 148.74 89.78 146.36 89.78 145.24 90.27 145.24 90.93 148.74 90.93 152.3 90.93 152.3 90.27 151.18 89.78"/>
        </g>
        <path class="a" d="M133.71,32.79H104.16l.31-.52a2.76,2.76,0,0,1,2.37-1.34H131a2.76,2.76,0,0,1,2.37,1.34Z"/>
        <polygon class="a" points="181.47 69.26 171.98 70.37 160.77 70.37 160.77 67.92 181.47 67.92 181.47 69.26"/>
        <path class="a" d="M138.86,44.87h-9.38a1.19,1.19,0,0,0-1.19,1.19V68.58H140V46.06A1.19,1.19,0,0,0,138.86,44.87Zm-.68,12.9a1.63,1.63,0,0,1-1.63,1.63h-4.77a1.63,1.63,0,0,1-1.63-1.63v-9a1.63,1.63,0,0,1,1.63-1.63h4.77a1.63,1.63,0,0,1,1.63,1.63Z"/>
        <path class="a" d="M58.86,68.58h68.55V46.06A2.07,2.07,0,0,1,129.47,44h9.38a2.07,2.07,0,0,1,2.07,2.07V68.58h3.89V42h-86ZM94.51,48.75a1.63,1.63,0,0,1,1.63-1.63h17.53a1.63,1.63,0,0,1,1.63,1.63V53.3a1.63,1.63,0,0,1-1.63,1.63H96.14a1.63,1.63,0,0,1-1.63-1.63Zm-31.58,0a1.63,1.63,0,0,1,1.63-1.63H82.09a1.63,1.63,0,0,1,1.63,1.63v9a1.63,1.63,0,0,1-1.63,1.63H64.56a1.63,1.63,0,0,1-1.63-1.63Z"/>
        <rect class="a" x="128.29" y="69.71" width="11.76" height="5.98"/>
        <path class="a" d="M146,78h-1.2V69.71h-3.89v6.86H127.41V69.71H58.86V78h-1.2V69.71H49.88v1.91A1.93,1.93,0,0,1,48,73.55H43.63a1.93,1.93,0,0,1-1.93-1.93V69.71H37v6.6l15.81,4H81.85a8.74,8.74,0,0,1,16.46,0H100a8.74,8.74,0,0,1,16.46,0h33.31l2.59-10.62H146Z"/>
        <path class="a" d="M179.46,55.34c-.65-4.26-10.19-20.65-17.93-21.37V66.59h11.56S180.33,61,179.46,55.34Z"/>
        <path class="a" d="M91,33.93l-54,.52V68.58H41.7V49.22a1.93,1.93,0,0,1,1.93-1.93H48a1.93,1.93,0,0,1,1.93,1.93V68.58h7.77V40.09H146V68.58h6.7a3.7,3.7,0,0,1,3.28-2h4.57V33.93Zm63.8,22.17h-4.93a1.93,1.93,0,0,1-1.93-1.93v-5.1a1.93,1.93,0,0,1,1.93-1.93h4.93a1.93,1.93,0,0,1,1.93,1.93v5.1A1.93,1.93,0,0,1,154.77,56.1Z"/>
      </g>
      <rect class="a" x="4.87" y="79.74" width="37.59" height="1.5" transform="translate(-35.68 21.19) rotate(-28.63)"/>
      <polygon class="a" points="40.53 69.71 52.17 69.71 52.17 75.49 45.17 75.49 40.17 74.49 40.53 69.71"/>
      <polygon class="a" points="39.44 68.58 53.96 68.58 51.17 44.49 41.17 44.49 39.44 68.58"/>
    </g>
    <rect class="b" width="188.27" height="90.93"/>
  </g>
</svg>
