<svg xmlns="http://www.w3.org/2000/svg" viewBox="0 0 188.27 90.93">
  <defs>
    <style>
      .a {
        fill: #004481;
      }

      .b {
        fill: none;
      }
    </style>
  </defs>
  <title>RV_TravelTrailer</title>
  <g>
    <g>
      <path class="a" d="M118.94,32.81H89.12l.32-.53a2.79,2.79,0,0,1,2.39-1.35h24.41a2.79,2.79,0,0,1,2.39,1.35Z"/>
      <path class="a" d="M72.13,32.81H42.3l.32-.53A2.79,2.79,0,0,1,45,30.93H69.42a2.79,2.79,0,0,1,2.39,1.35Z"/>
      <rect class="a" x="124.03" y="84.94" width="15.41" height="2.42" rx="0.44" ry="0.44"/>
      <rect class="a" x="162.9" y="79.08" width="1.13" height="10.69"/>
      <rect class="a" x="129.72" y="84.21" width="4.03" height="0.73"/>
      <polygon class="a" points="169.09 85.48 143.01 85.48 140.75 84.21 169.09 84.21 169.09 85.48"/>
      <polygon class="a" points="165.94 89.77 163.47 89.77 161.07 89.77 159.94 90.26 159.94 90.93 163.47 90.93 167.07 90.93 167.07 90.26 165.94 89.77"/>
      <polygon class="a" points="43.88 71.83 43.88 79.65 28.14 79.65 28.14 71.83 24.52 71.83 24.52 79.08 23.31 79.08 23.31 71.83 19.18 71.83 19.18 83.64 45.56 83.64 45.56 71.83 43.88 71.83"/>
      <path class="a" d="M46.71,71.83V83.64h1.05a3.48,3.48,0,0,0,0-.44A9.39,9.39,0,0,1,66.2,80.59h.23a9.39,9.39,0,0,1,18.42,2.62,3.35,3.35,0,0,0,0,.44h4.91V71.83Z"/>
      <path class="a" d="M129.93,38.26h-39V70.68h39Zm-7.4,20a2,2,0,0,1-2,2H94a2,2,0,0,1-2-2V47.49a2,2,0,0,1,2-2h26.57a2,2,0,0,1,2,2Z"/>
      <polygon class="a" points="23.31 35.52 23.89 35.52 24.52 35.52 45.56 35.52 45.56 33.97 19.18 33.97 19.18 70.68 23.31 70.68 23.31 35.52"/>
      <rect class="a" x="29.06" y="71.83" width="13.9" height="6.9"/>
      <path class="a" d="M129.93,35.52h1.21V70.68h24.62c-.09-.26-.16-.52-.25-.79l-1.73-4.77C151.22,58,148,49.24,145,40.73c-1.69-4.8-4.34-6.77-9.16-6.77H90.93v1.55Z"/>
      <rect class="a" x="46.71" y="33.97" width="43.08" height="1.55"/>
      <path class="a" d="M46.71,70.68H89.79V38.26H46.71ZM59.92,47.49a2,2,0,0,1,2-2h18.5a2,2,0,0,1,2,2v5.12a2,2,0,0,1-2,2H61.88a2,2,0,0,1-2-2Z"/>
      <path class="a" d="M131.15,71.83v7.25h-1.21V71.83h-39V83.64h56.14c4,0,6.8-1.1,8.33-3.27s1.66-5,.71-8.55Z"/>
      <path class="a" d="M41.51,42.48h-11a1.45,1.45,0,0,0-1.45,1.45V70.68H43V43.93A1.45,1.45,0,0,0,41.51,42.48Zm-.7,15.6a2,2,0,0,1-2,2H33.17a2,2,0,0,1-2-2V47.32a2,2,0,0,1,2-2h5.68a2,2,0,0,1,2,2Z"/>
      <path class="a" d="M24.52,70.68h3.62V43.93a2.37,2.37,0,0,1,2.37-2.37h11a2.37,2.37,0,0,1,2.37,2.37V70.68h1.68V38.26h-21Z"/>
      <g>
        <path class="a" d="M74.54,81.47l.35-2.75a4.63,4.63,0,0,0-3.6,2.61l2.72.51A2.08,2.08,0,0,1,74.54,81.47Z"/>
        <path class="a" d="M73.44,83a2.05,2.05,0,0,1,.2-.6L71.76,82l0,.14Z"/>
        <path class="a" d="M74,84.79l-.91,1.67.11.08,1.31-1.39A2.08,2.08,0,0,1,74,84.79Z"/>
        <path class="a" d="M73.44,83.64l-2.52-1.19a4.55,4.55,0,0,0,1.38,4.23l1.33-2.44A2.05,2.05,0,0,1,73.44,83.64Z"/>
        <circle class="a" cx="75.49" cy="83.31" r="0.9"/>
        <path class="a" d="M75.8,81.26l-.24-1.89h-.14l-.24,1.89a1.57,1.57,0,0,1,.63,0Z"/>
        <path class="a" d="M76.08,78.72l.35,2.75a2.08,2.08,0,0,1,.52.37l2.72-.51A4.63,4.63,0,0,0,76.08,78.72Z"/>
        <path class="a" d="M75.49,85.4a2.07,2.07,0,0,1-.32,0l-1.9,2a4.49,4.49,0,0,0,4.43,0l-1.9-2A2.07,2.07,0,0,1,75.49,85.4Z"/>
        <path class="a" d="M79.21,82l-1.87.35a2.05,2.05,0,0,1,.2.6l1.72-.81Z"/>
        <path class="a" d="M75.49,75.69a7.62,7.62,0,1,0,7.62,7.62A7.62,7.62,0,0,0,75.49,75.69Zm0,12.84a5.22,5.22,0,1,1,5.22-5.22A5.22,5.22,0,0,1,75.49,88.53Z"/>
        <path class="a" d="M76.44,85.16l1.31,1.39.11-.08-.91-1.67A2.09,2.09,0,0,1,76.44,85.16Z"/>
        <path class="a" d="M77.34,84.25l1.33,2.44a4.55,4.55,0,0,0,1.38-4.23l-2.52,1.19A2.06,2.06,0,0,1,77.34,84.25Z"/>
      </g>
      <g>
        <path class="a" d="M56.27,81.47l.35-2.75A4.63,4.63,0,0,0,53,81.33l2.72.51A2.08,2.08,0,0,1,56.27,81.47Z"/>
        <path class="a" d="M55.17,83a2.05,2.05,0,0,1,.2-.6L53.49,82l0,.14Z"/>
        <path class="a" d="M55.75,84.79l-.91,1.67.11.08,1.31-1.39A2.09,2.09,0,0,1,55.75,84.79Z"/>
        <path class="a" d="M55.17,83.64l-2.52-1.19A4.56,4.56,0,0,0,54,86.69l1.33-2.44A2.05,2.05,0,0,1,55.17,83.64Z"/>
        <circle class="a" cx="57.22" cy="83.31" r="0.9"/>
        <path class="a" d="M57.53,81.26l-.24-1.89h-.14l-.24,1.89a1.57,1.57,0,0,1,.63,0Z"/>
        <path class="a" d="M57.81,78.72l.35,2.75a2.09,2.09,0,0,1,.52.37l2.72-.51A4.63,4.63,0,0,0,57.81,78.72Z"/>
        <path class="a" d="M57.22,85.4a2.07,2.07,0,0,1-.32,0l-1.9,2a4.49,4.49,0,0,0,4.43,0l-1.9-2A2.07,2.07,0,0,1,57.22,85.4Z"/>
        <path class="a" d="M60.94,82l-1.87.35a2.06,2.06,0,0,1,.2.6L61,82.16Z"/>
        <path class="a" d="M57.22,75.69a7.62,7.62,0,1,0,7.62,7.62A7.62,7.62,0,0,0,57.22,75.69Zm0,12.84a5.22,5.22,0,1,1,5.22-5.22A5.22,5.22,0,0,1,57.22,88.53Z"/>
        <path class="a" d="M58.17,85.16l1.31,1.39.11-.08-.91-1.67A2.09,2.09,0,0,1,58.17,85.16Z"/>
        <path class="a" d="M59.07,84.25l1.33,2.44a4.55,4.55,0,0,0,1.38-4.23l-2.52,1.19A2.05,2.05,0,0,1,59.07,84.25Z"/>
      </g>
    </g>
    <rect class="b" width="188.27" height="90.93"/>
  </g>
</svg>
