<svg xmlns="http://www.w3.org/2000/svg" viewBox="0 0 193 90.43">
  <defs>
    <style>
      .a {
        fill: #fff;
      }
    </style>
  </defs>
  <title>thor</title>
  <g>
    <path class="a" d="M24.64,0c.1.08.2.21.3.22l12.87,1.7,8.8,1.16a6.71,6.71,0,0,1,.93.27v8.06c-.34,0-.69.11-1,.12l-8.88.2a18.61,18.61,0,0,0-5.52.84,8.23,8.23,0,0,0-5.84,7.34,22.15,22.15,0,0,0,.36,6.66,102.08,102.08,0,0,0,7,23.77l.87,2a1,1,0,0,1,0,.24c-.18.21-.4.49-.65.74a53.88,53.88,0,0,1-7,5.85,4.63,4.63,0,0,1-5.89.05,54.79,54.79,0,0,1-7.84-6.69c.7-1.63,1.45-3.28,2.12-5a101.69,101.69,0,0,0,6-22.22,19.1,19.1,0,0,0,.19-5.44c-.7-5.27-4.13-7.3-8-7.87a49.72,49.72,0,0,0-5.45-.4c-2.68-.1-5.37-.12-8.06-.17V3.29l5.93-.82,15.26-2c.7-.1,1.39-.28,2.09-.42Z"/>
    <path class="a" d="M0,15.33c4.05.1,8.11.11,12.16.31a5.11,5.11,0,0,1,5,6.18c-.11.67-.18,1.35-.32,2A31,31,0,0,1,13,33.59c-1.79,3-3.77,5.92-5.69,8.85A14.33,14.33,0,0,1,6,43.9c-.51-1-1-1.92-1.36-2.82a51,51,0,0,1-3.53-13A72.68,72.68,0,0,1,.22,17.72,2.83,2.83,0,0,0,0,17Z"/>
    <path class="a" d="M193,13.41a8.53,8.53,0,0,1-.54.73,1.68,1.68,0,0,1-2.32.1,1.59,1.59,0,1,1,2.35-2.13,7.07,7.07,0,0,1,.51.75Z"/>
    <path class="a" d="M158.34,11.5h2.73c4.74,0,9.49,0,14.23.05a18.26,18.26,0,0,1,6,1,9.12,9.12,0,0,1,6.26,7,12.26,12.26,0,0,1-4.12,12.56A11.46,11.46,0,0,1,179,34.37l10.69,13.51c-.39,0-.61.07-.83.07-2.74,0-5.47,0-8.21,0a1.67,1.67,0,0,1-1.49-.73c-2.75-3.52-5.55-7-8.29-10.54a2.07,2.07,0,0,0-1.94-1c-1.13.07-2.27,0-3.54,0l-1.19,12a52.52,52.52,0,0,1-9.33.15l1-11.07-.23-.08c-.21.36-.42.72-.61,1.09A19.23,19.23,0,0,1,142.43,48a19.58,19.58,0,0,1-10.67-.12,14.58,14.58,0,0,1-9.93-9.58c-.26-.72-.45-1.48-.76-2.23a49.12,49.12,0,0,0-.69,5.8c-.19,2-.41,4-.62,6h-9.43l1.33-13.95h-12l-1.38,14H88.91c.31-4.76.87-9.44,1.3-14.14s.9-9.43,1.35-14.12c-1-.35-7-.46-9.47-.17-1,9.41-1.81,18.88-2.79,28.41H69.87l2.74-28.53H57l.76-7.78h44.05c-.35,4.63-.89,9.22-1.28,13.8a91.35,91.35,0,0,0,12,.09l1.37-13.88h9.27c.27,1.32-.15,2.6-.21,3.9s-.22,2.63-.35,3.95-.27,2.62-.27,4c.24-.47.46-.95.71-1.42A19.41,19.41,0,0,1,138.51,11a18.43,18.43,0,0,1,8.51.82A14.71,14.71,0,0,1,156.58,22a5.23,5.23,0,0,0,.58,1.44ZM147.5,28c0-.41,0-.82,0-1.23-.05-.59-.13-1.18-.24-1.76-.93-4.82-4.46-6.73-8.66-5.92a8.81,8.81,0,0,0-6.38,5.07,16,16,0,0,0-1.54,7.42A11.33,11.33,0,0,0,131.87,37a6.32,6.32,0,0,0,5.47,3.53,8.37,8.37,0,0,0,8.33-4.63A17,17,0,0,0,147.5,28Zm19.44-8.84c-.22,3.1-.71,6-.77,9.15,1.64,0,3.09,0,4.54,0a21.65,21.65,0,0,0,2.59-.12,8.32,8.32,0,0,0,2.23-.56A4.87,4.87,0,0,0,178.11,22a3.66,3.66,0,0,0-3.33-2.6A56.73,56.73,0,0,0,166.94,19.16Z"/>
    <path class="a" d="M47.63,15.39c-.29,9.86-1.23,19.45-5.86,28.48a11.22,11.22,0,0,1-1-1,60.36,60.36,0,0,1-8.92-15.59,25,25,0,0,1-1.29-6,4.93,4.93,0,0,1,3.92-5.43,21.69,21.69,0,0,1,3.79-.44c2.87-.09,5.74-.09,8.61-.12A6.34,6.34,0,0,1,47.63,15.39Z"/>
    <path class="a" d="M127.17,86.43l1.32-5.05h3.07v8.81c-.31,0-.62.09-.92.11s-.63,0-1.09,0V85.38l-.23,0-1.39,4.84h-1.53L125,85.39h-.15v4.81h-2a49,49,0,0,1-.06-8.83h2.92Z"/>
    <path class="a" d="M62,56.53l1-3.74h2.29v6.75H63.84V56.13l-.21,0-1,3.46H61.46l-1-3.49h-.17v3.47H58.65V52.77H61Z"/>
    <path class="a" d="M143.16,84V81.4h2.09v8.77a2.54,2.54,0,0,1-.53.12,13.49,13.49,0,0,0-3,0,2.15,2.15,0,0,1-2.4-1.41,4.37,4.37,0,0,1-.1-3.7A2.45,2.45,0,0,1,142,83.67C142.4,83.73,142.74,83.85,143.16,84Zm.08,3.06a2.9,2.9,0,0,0-.2-1,1.7,1.7,0,0,0-.85-.77c-.47-.1-.82.27-1,.74a2.49,2.49,0,0,0,.09,2.11,1.14,1.14,0,0,0,.82.55,1.19,1.19,0,0,0,.85-.53A3.69,3.69,0,0,0,143.25,87Z"/>
    <path class="a" d="M152.42,87.4l-1.1.15c0,.12,0,.23,0,.26.36.27.73.52,1.08.77a3.46,3.46,0,0,1-6.36-2.64,3.19,3.19,0,0,1,3.52-2.33C151.49,83.91,152.49,85.19,152.42,87.4Zm-4.31.16c.85,1.48,1.78,1.44,2.67,0Zm2.23-1.44c-.21-.82-.65-1-1.25-1s-.87.37-1,1Z"/>
    <path class="a" d="M115.77,57.11,117,59.55h-1.83c-.84-.52-.63-2.05-2.07-2.37L113,59.53h-1.75v-6.8a20.28,20.28,0,0,1,3.94.06,2,2,0,0,1,1.73,1.52,2.19,2.19,0,0,1-.55,2.27C116.2,56.76,116,56.92,115.77,57.11Zm-2.65-1.26a5.13,5.13,0,0,0,1.4-.1.75.75,0,0,0,0-1.48,4.9,4.9,0,0,0-1.36,0Z"/>
    <path class="a" d="M138.24,90.25c-.77,0-1.45.25-2-.35a3.31,3.31,0,0,1-1.94.44,1.85,1.85,0,0,1-1.91-1.75,1.88,1.88,0,0,1,1.45-2.16c.73-.23,1.48-.38,2.46-.62-.3-.35-.44-.67-.65-.73-.65-.19-1,.22-1.17.82h-1.78c0-1.37.34-1.92,1.53-2.14a6.84,6.84,0,0,1,2-.06,2,2,0,0,1,2,2.17C138.28,87.28,138.24,88.69,138.24,90.25Zm-2-3.13a14,14,0,0,0-1.56.61.62.62,0,0,0-.21.57.91.91,0,0,0,.61.4C135.73,88.77,135.93,88.49,136.28,87.13Z"/>
    <path class="a" d="M166.48,87.09a3.09,3.09,0,0,1-3.22,3.29,3.38,3.38,0,0,1,0-6.77A3.22,3.22,0,0,1,166.48,87.09Zm-2.16-.2a4.06,4.06,0,0,0-.07-.58,1,1,0,0,0-1-.91.94.94,0,0,0-1,.81,3.41,3.41,0,0,0-.15.66c-.06.93.48,1.76,1.14,1.76S164.33,88,164.33,86.89Z"/>
    <path class="a" d="M104.07,56.1a3.27,3.27,0,0,1-3.41,3.58,3.56,3.56,0,1,1,3.41-3.58Zm-1.89.19a7.07,7.07,0,0,0-.11-1,1.38,1.38,0,0,0-1.34-1.13,1.4,1.4,0,0,0-1.44,1,2.53,2.53,0,0,0,.07,2.1,1.33,1.33,0,0,0,1.28.84,1.34,1.34,0,0,0,1.34-.94A5.76,5.76,0,0,0,102.18,56.29Z"/>
    <path class="a" d="M79.43,56.13A3.23,3.23,0,0,1,76,59.68a3.56,3.56,0,1,1,3.43-3.55Zm-1.9.17c0-.37,0-.6-.07-.83a1.43,1.43,0,0,0-1.36-1.3,1.31,1.31,0,0,0-1.47,1.14,4.88,4.88,0,0,0,.14,2,1.19,1.19,0,0,0,1.3.8,1.31,1.31,0,0,0,1.26-.89A4.66,4.66,0,0,0,77.54,56.3Z"/>
    <path class="a" d="M148.47,59.68a3.56,3.56,0,0,1-.08-7.12,3.38,3.38,0,0,1,3.51,3.68A3.29,3.29,0,0,1,148.47,59.68Zm-1.5-3.3a4.19,4.19,0,0,0,.3,1,1.37,1.37,0,0,0,2.27.23,2.5,2.5,0,0,0-.06-3,1.62,1.62,0,0,0-.94-.42C147.54,54.11,147,54.84,147,56.38Z"/>
    <path class="a" d="M185.71,55h2.07l.11-2.17h1.76v6.74H187.9V56.71h-2.23v2.84h-1.73c0-1.13,0-2.25,0-3.37s0-2.18,0-3.42l1.64-.09Z"/>
    <path class="a" d="M164.77,59.57H163l-.53-.9H160.2l-.56.92H158l2.44-6.85h1.79Z"/>
    <path class="a" d="M173.79,82.71c-.56.17-1.28.23-.95,1.18l.93.22,0,.93-1,.26v4.9h-2.05a21.87,21.87,0,0,1-.13-3.37c0-.66.27-1.43-.62-1.88a.56.56,0,0,1,.16-.91c.37-.16.42-.38.48-.72.35-2,1-2.47,3.15-2,0,.2.07.42.07.64S173.81,82.44,173.79,82.71Z"/>
    <path class="a" d="M138.57,53.9l-1.22,1c-1.18-.87-1.83-1-2.43-.31a2.52,2.52,0,0,0-.09,2.92c.57.77,1.33.77,2.78-.1l.81,1.17a3.37,3.37,0,0,1-4.76.27,3.85,3.85,0,0,1-.11-5.39C134.94,52.12,137,52.26,138.57,53.9Z"/>
    <path class="a" d="M176.85,53.93l-1,.85a12.58,12.58,0,0,0-1.87-.56c-.23,0-.58.25-.77.47a2.4,2.4,0,0,0,0,2.91c.62.71,1.29.69,2.6-.13l1,1a3.43,3.43,0,0,1-5,.33,3.92,3.92,0,0,1,.12-5.42A3.34,3.34,0,0,1,176.85,53.93Z"/>
    <path class="a" d="M159.79,88.77l-.11,1.34c-.15.09-.22.17-.3.18-2.45.2-2.75-.08-2.75-2.56q0-.89,0-1.77c0-.37,0-.67-.5-.83a.56.56,0,0,1-.16-1c.91-.3.6-1,.66-1.56,0-.22,0-.45.05-.79h2.05v1.74c.24.62,1.16.29,1,1.08-.06.36,0,.37-1,.73,0,.75,0,1.56,0,2.37C158.74,88.37,159,88.77,159.79,88.77Z"/>
    <path class="a" d="M181.23,88.79v1.48c-.51,0-1,.08-1.46.06-1.19,0-1.55-.4-1.59-1.57,0-.87,0-1.73,0-2.6,0-.45.09-.91-.57-1.06-.13,0-.27-.58-.18-.81s.45-.36.78-.6V81.78h2l.13,1.93c.17.44,1.09.13.93.92-.07.35,0,.36-1,.76,0,.7,0,1.46,0,2.22S180.46,88.79,181.23,88.79Z"/>
    <path class="a" d="M91.08,52.68v1.43l-1.81.17v5.27h-1.8V54.29l-1.74-.15-.1-1.42C87.47,52.62,89.21,52.7,91.08,52.68Z"/>
    <path class="a" d="M175,83.81h1.93v6.42h-1.82A25.25,25.25,0,0,1,175,83.81Z"/>
    <path class="a" d="M181.68,90.23V88.07h1.91v2.16Z"/>
    <path class="a" d="M176.89,83.12H175V81.53h1.92Z"/>
  </g>
</svg>
