<svg xmlns="http://www.w3.org/2000/svg" viewBox="0 0 199.42 34">
  <defs>
    <style>
      .a {
        fill: #fff;
      }
    </style>
  </defs>
  <title>winnebago</title>
  <g>
    <path class="a" d="M197.67,0l-1.09,6H43c-1.15,4.5-2.05,9-3,13.42s-2,8.82-3,13.27H29.47L25.12,13.13c-1.78,6.45-3.2,12.92-4.63,19.37a41.78,41.78,0,0,1-8,.06L6.46,6H1.25A51.6,51.6,0,0,1,0,0H12.67c.66,3,1.3,5.94,2,8.91s1.24,6,2.14,9c.47-1.55.85-3.09,1.2-4.64Q19.5,6.63,21,0h8.67Q30.84,5.26,32,10.52c.47,2.1,1,4.2,1.51,6.63.22-.82.37-1.29.48-1.78.8-3.56,1.6-7.12,2.38-10.68.34-1.56.64-3.13,1-4.69Z"/>
    <path class="a" d="M196,34l-.67-.67a2.5,2.5,0,0,1-.14-3.41,2.34,2.34,0,0,1,3.39-.22,2.55,2.55,0,0,1,.33,3.42A9.43,9.43,0,0,1,198,34Zm2-1c.11,0,.26,0,.32,0a1.87,1.87,0,0,0,0-2.88,1.92,1.92,0,0,0-2.68.19c-.81.95-.67,1.86.42,2.76S197.05,33.8,198,33Z"/>
    <path class="a" d="M93.22,32.64H85.14L83.29,24.2H83.1l-1.53,8.48-3.46,0H74.62c.44-3.85,1.22-7.51,1.78-11.2s1.3-7.39,2-11.23l4,0h4l1.87,8.67h.24L90,10.35h7Z"/>
    <path class="a" d="M52.58,32.72l3.81-22.39c1.32-.14,2.64-.05,3.95-.07s2.54,0,4,0c.81,2.85,1.28,5.76,2,9a33.55,33.55,0,0,0,1-4.6c.34-1.39.5-2.82.76-4.4l3.46,0H75c-.32,2.54-.81,5-1.23,7.37s-.78,5-1.19,7.53-.85,4.89-1.31,7.47a37.19,37.19,0,0,1-3.94.07c-1.33,0-2.65,0-4.1,0l-1.87-8.56h-.22l-1.48,8.5c-1.18.1-2.33,0-3.47,0Z"/>
    <path class="a" d="M132.32,21.51a3.25,3.25,0,0,1,.7,2.93,43.49,43.49,0,0,1-.79,4.57,4.91,4.91,0,0,1-4.7,3.74c-4.1-.13-8.21,0-12.51,0a74.23,74.23,0,0,1,1.08-7.37c.33-2.52.84-5,1.28-7.52s.88-4.89,1.33-7.44a7.3,7.3,0,0,1,.95-.12c3.55,0,7.11,0,10.66,0a7.35,7.35,0,0,1,2.27.37,2.8,2.8,0,0,1,2,2.93,34.29,34.29,0,0,1-.78,5.57A8.84,8.84,0,0,1,132.32,21.51Zm-9.05,4.72c1.35,0,1.51,0,1.89-.46a1.89,1.89,0,0,0,.44-1.7,1.1,1.1,0,0,0-.58-.7,3.8,3.8,0,0,0-1.18,0Zm1.21-6.91a5.41,5.41,0,0,0,.81,0,1.41,1.41,0,0,0,1.37-1.52c0-.63-.35-.8-1.51-.74-.09,0-.17.12-.34.24Z"/>
    <path class="a" d="M182.91,33c-1.28,0-2.56,0-3.83,0-2.58-.11-4-1.74-3.56-4.31.51-3.39,1.12-6.76,1.69-10.14.26-1.53.58-3,.76-4.58a4.68,4.68,0,0,1,4.57-4c2.5.1,5,0,7.5,0,2.82,0,4.45,1.68,4.29,4.53-.1,1.81-.49,3.61-.78,5.41-.4,2.57-.85,5.13-1.24,7.7s-2.24,5.65-6.06,5.39c-.17,0-.33,0-.5,0h-2.83Zm1.31-6.37c.91-.65.94-.64,1.1-1.5.35-1.84.67-3.7,1-5.54a5.32,5.32,0,0,0,.22-1.46,1.56,1.56,0,0,0-.62-1c-.17-.11-.71.17-.95.41a2,2,0,0,0-.49,1c-.39,2.17-.74,4.35-1.1,6.53A1.25,1.25,0,0,0,184.22,26.61Z"/>
    <path class="a" d="M174.08,18.65H167.4c0-.32-.07-.63-.14-.93a1.2,1.2,0,0,0-1.14-1,1.28,1.28,0,0,0-1.33.82,7,7,0,0,0-.42,1.6c-.3,1.8-.57,3.6-.85,5.41-.16,1,.08,1.56.73,1.78s1.1-.09,1.57-.89a2.57,2.57,0,0,0,.16-.56l-1.16-.3.69-4.36h8.17c-.29,1.89-.56,3.69-.85,5.48-.13.82-.29,1.63-.45,2.44-.64,3.24-2.62,4.88-5.9,4.89h-6.66c-3.22,0-4.45-1.52-4-4.65.51-4,1.32-8,2-11.93a25.83,25.83,0,0,0,.48-2.77c.11-1.74,2.33-3.74,4.31-3.7,2.66.06,5.33,0,8,0a4,4,0,0,1,4.06,4.15A43.06,43.06,0,0,1,174.08,18.65Z"/>
    <path class="a" d="M141.66,10.3H152.3c.69,7.39.86,14.79,1.41,22.23a14.62,14.62,0,0,1-3.82.18c-1.22,0-2.44,0-3.78,0l-.32-2.66h-4.23l-1,2.66c-2.44,0-4.8,0-7.41,0C136,25.09,138.8,17.74,141.66,10.3Zm3.72,10.85a9,9,0,0,0-1.7,3.83l1.7-.1Z"/>
    <path class="a" d="M100.64,10.31h14.48c.23,1.18-.07,3.24-1,6.72h-3.76l-3.89,0-.22,1.84h7.58L113.12,24h-7.64l-.41,1.78c2.51.4,5,0,7.62.25-.19,1.15-.35,2.22-.54,3.29s-.41,2.16-.61,3.22a145.11,145.11,0,0,1-14.77.09Z"/>
    <path class="a" d="M42.45,32.64l3.69-22.13a27,27,0,0,1,7.15,0L49.46,32.64Z"/>
    <path class="a" d="M198,33,196.89,32c-.41.2-.11,1.18-.88,1V30.4a1.5,1.5,0,0,1,2.3.46A2,2,0,0,0,198,33Zm-.45-1.82v-.42h-.83a3.82,3.82,0,0,0,0,.41C197,31.21,197.3,31.2,197.57,31.2Z"/>
  </g>
</svg>
